<svg width="517" height="352" viewBox="0 0 517 352" fill="none" xmlns="http://www.w3.org/2000/svg">
<path d="M201.354 299.552C201.141 299.552 200.96 299.477 200.81 299.328C200.661 299.179 200.586 298.997 200.586 298.784V277.952C200.586 277.717 200.65 277.525 200.778 277.376C200.928 277.227 201.12 277.152 201.354 277.152H204.298C204.533 277.152 204.725 277.227 204.874 277.376C205.024 277.525 205.098 277.717 205.098 277.952V286.176H214.442V277.952C214.442 277.717 214.517 277.525 214.666 277.376C214.816 277.227 214.997 277.152 215.21 277.152H218.186C218.421 277.152 218.602 277.227 218.73 277.376C218.88 277.525 218.954 277.717 218.954 277.952V298.784C218.954 298.997 218.88 299.179 218.73 299.328C218.602 299.477 218.421 299.552 218.186 299.552H215.21C214.997 299.552 214.816 299.477 214.666 299.328C214.517 299.179 214.442 298.997 214.442 298.784V290.24H205.098V298.784C205.098 298.997 205.024 299.179 204.874 299.328C204.725 299.477 204.533 299.552 204.298 299.552H201.354ZM230.969 299.872C228.452 299.872 226.511 299.232 225.145 297.952C223.78 296.672 223.044 294.901 222.937 292.64L222.905 291.232L222.937 289.824C223.044 287.584 223.791 285.824 225.177 284.544C226.564 283.243 228.495 282.592 230.969 282.592C233.423 282.592 235.343 283.243 236.729 284.544C238.116 285.824 238.863 287.584 238.969 289.824C238.991 290.08 239.001 290.549 239.001 291.232C239.001 291.915 238.991 292.384 238.969 292.64C238.863 294.901 238.127 296.672 236.761 297.952C235.396 299.232 233.465 299.872 230.969 299.872ZM230.969 296.64C232.1 296.64 232.964 296.288 233.561 295.584C234.18 294.88 234.511 293.845 234.553 292.48C234.575 292.267 234.585 291.851 234.585 291.232C234.585 290.613 234.575 290.197 234.553 289.984C234.511 288.619 234.18 287.584 233.561 286.88C232.943 286.155 232.079 285.792 230.969 285.792C229.839 285.792 228.964 286.155 228.345 286.88C227.727 287.584 227.396 288.619 227.353 289.984L227.321 291.232L227.353 292.48C227.396 293.845 227.727 294.88 228.345 295.584C228.964 296.288 229.839 296.64 230.969 296.64ZM249.938 299.872C247.421 299.872 245.48 299.232 244.114 297.952C242.749 296.672 242.013 294.901 241.906 292.64L241.874 291.232L241.906 289.824C242.013 287.584 242.76 285.824 244.146 284.544C245.533 283.243 247.464 282.592 249.938 282.592C252.392 282.592 254.312 283.243 255.698 284.544C257.085 285.824 257.832 287.584 257.938 289.824C257.96 290.08 257.97 290.549 257.97 291.232C257.97 291.915 257.96 292.384 257.938 292.64C257.832 294.901 257.096 296.672 255.73 297.952C254.365 299.232 252.434 299.872 249.938 299.872ZM249.938 296.64C251.069 296.64 251.933 296.288 252.53 295.584C253.149 294.88 253.48 293.845 253.522 292.48C253.544 292.267 253.554 291.851 253.554 291.232C253.554 290.613 253.544 290.197 253.522 289.984C253.48 288.619 253.149 287.584 252.53 286.88C251.912 286.155 251.048 285.792 249.938 285.792C248.808 285.792 247.933 286.155 247.314 286.88C246.696 287.584 246.365 288.619 246.322 289.984L246.29 291.232L246.322 292.48C246.365 293.845 246.696 294.88 247.314 295.584C247.933 296.288 248.808 296.64 249.938 296.64ZM262.283 299.552C262.07 299.552 261.888 299.477 261.739 299.328C261.59 299.179 261.515 298.997 261.515 298.784V283.712C261.515 283.477 261.59 283.285 261.739 283.136C261.888 282.987 262.07 282.912 262.283 282.912H264.907C265.142 282.912 265.334 282.987 265.483 283.136C265.632 283.285 265.707 283.477 265.707 283.712V285.024C266.774 283.616 268.31 282.912 270.315 282.912H271.659C271.894 282.912 272.075 282.987 272.203 283.136C272.352 283.264 272.427 283.445 272.427 283.68V286.016C272.427 286.229 272.352 286.411 272.203 286.56C272.075 286.709 271.894 286.784 271.659 286.784H269.131C268.128 286.784 267.339 287.072 266.763 287.648C266.187 288.224 265.899 289.013 265.899 290.016V298.784C265.899 298.997 265.824 299.179 265.675 299.328C265.526 299.477 265.344 299.552 265.131 299.552H262.283ZM279.503 299.872C278.415 299.872 277.413 299.659 276.495 299.232C275.599 298.784 274.885 298.187 274.351 297.44C273.839 296.693 273.583 295.872 273.583 294.976C273.583 293.525 274.17 292.352 275.343 291.456C276.517 290.56 278.127 289.952 280.175 289.632L284.559 288.992V288.32C284.559 287.403 284.325 286.709 283.855 286.24C283.386 285.771 282.639 285.536 281.615 285.536C280.911 285.536 280.346 285.664 279.919 285.92C279.493 286.176 279.141 286.443 278.863 286.72C278.607 286.976 278.437 287.147 278.351 287.232C278.266 287.488 278.106 287.616 277.871 287.616H275.375C275.183 287.616 275.013 287.552 274.863 287.424C274.735 287.296 274.671 287.125 274.671 286.912C274.693 286.379 274.949 285.781 275.439 285.12C275.951 284.437 276.73 283.851 277.775 283.36C278.821 282.848 280.111 282.592 281.647 282.592C284.165 282.592 285.999 283.157 287.151 284.288C288.303 285.419 288.879 286.901 288.879 288.736V298.784C288.879 298.997 288.805 299.179 288.655 299.328C288.527 299.477 288.346 299.552 288.111 299.552H285.455C285.242 299.552 285.061 299.477 284.911 299.328C284.762 299.179 284.687 298.997 284.687 298.784V297.536C284.218 298.219 283.557 298.784 282.703 299.232C281.85 299.659 280.783 299.872 279.503 299.872ZM280.591 296.8C281.765 296.8 282.725 296.416 283.471 295.648C284.218 294.88 284.591 293.771 284.591 292.32V291.68L281.391 292.192C278.938 292.576 277.711 293.397 277.711 294.656C277.711 295.339 277.989 295.872 278.543 296.256C279.119 296.619 279.802 296.8 280.591 296.8ZM295.554 305.632C295.384 305.632 295.224 305.568 295.074 305.44C294.946 305.312 294.882 305.163 294.882 304.992C294.882 304.843 294.925 304.672 295.01 304.48L297.538 298.56L291.394 284.064C291.309 283.872 291.266 283.723 291.266 283.616C291.288 283.424 291.362 283.264 291.49 283.136C291.618 282.987 291.778 282.912 291.97 282.912H294.626C295.01 282.912 295.288 283.115 295.458 283.52L299.714 293.952L304.034 283.52C304.248 283.115 304.546 282.912 304.93 282.912H307.522C307.714 282.912 307.874 282.976 308.002 283.104C308.13 283.232 308.194 283.381 308.194 283.552C308.194 283.701 308.152 283.872 308.066 284.064L299.01 305.024C298.84 305.429 298.541 305.632 298.114 305.632H295.554ZM311.816 293.312C311.603 293.312 311.422 293.237 311.272 293.088C311.123 292.939 311.048 292.757 311.048 292.544V277.92C311.048 277.685 311.123 277.504 311.272 277.376C311.422 277.227 311.603 277.152 311.816 277.152H314.472C314.686 277.152 314.867 277.227 315.016 277.376C315.166 277.525 315.24 277.707 315.24 277.92V292.544C315.24 292.757 315.166 292.939 315.016 293.088C314.867 293.237 314.686 293.312 314.472 293.312H311.816ZM311.624 299.552C311.411 299.552 311.23 299.477 311.08 299.328C310.931 299.179 310.856 298.997 310.856 298.784V295.744C310.856 295.509 310.931 295.328 311.08 295.2C311.23 295.051 311.411 294.976 311.624 294.976H314.632C314.867 294.976 315.059 295.051 315.208 295.2C315.358 295.349 315.432 295.531 315.432 295.744V298.784C315.432 298.997 315.358 299.179 315.208 299.328C315.059 299.477 314.867 299.552 314.632 299.552H311.624Z" fill="#333333"/>
<path d="M50.9014 341.741C50.7548 341.741 50.6374 341.697 50.5494 341.609C50.4614 341.521 50.4174 341.403 50.4174 341.257V335.867L45.0494 327.067C44.9908 326.949 44.9614 326.854 44.9614 326.781C44.9614 326.663 45.0054 326.561 45.0934 326.473C45.1814 326.385 45.2841 326.341 45.4014 326.341H45.8414C46.0468 326.341 46.2154 326.451 46.3474 326.671L51.1214 334.437L55.8954 326.671C56.0274 326.451 56.1961 326.341 56.4014 326.341H56.8414C56.9588 326.341 57.0614 326.385 57.1494 326.473C57.2374 326.561 57.2814 326.663 57.2814 326.781C57.2814 326.854 57.2521 326.949 57.1934 327.067L51.8254 335.867V341.257C51.8254 341.403 51.7741 341.521 51.6714 341.609C51.5834 341.697 51.4661 341.741 51.3194 341.741H50.9014ZM62.3817 341.961C60.8563 341.961 59.6683 341.499 58.8177 340.575C57.9817 339.636 57.5417 338.426 57.4977 336.945L57.4757 336.021L57.4977 335.097C57.5417 333.615 57.9817 332.413 58.8177 331.489C59.6683 330.55 60.8563 330.081 62.3817 330.081C63.907 330.081 65.0877 330.55 65.9237 331.489C66.7743 332.413 67.2217 333.615 67.2657 335.097C67.2803 335.243 67.2877 335.551 67.2877 336.021C67.2877 336.49 67.2803 336.798 67.2657 336.945C67.2217 338.426 66.7743 339.636 65.9237 340.575C65.0877 341.499 63.907 341.961 62.3817 341.961ZM62.3817 340.685C63.423 340.685 64.259 340.355 64.8897 339.695C65.535 339.02 65.8797 338.067 65.9237 336.835C65.9383 336.688 65.9457 336.417 65.9457 336.021C65.9457 335.625 65.9383 335.353 65.9237 335.207C65.8797 333.975 65.535 333.029 64.8897 332.369C64.259 331.694 63.423 331.357 62.3817 331.357C61.3403 331.357 60.497 331.694 59.8517 332.369C59.221 333.029 58.8837 333.975 58.8397 335.207L58.8177 336.021L58.8397 336.835C58.8837 338.067 59.221 339.02 59.8517 339.695C60.497 340.355 61.3403 340.685 62.3817 340.685ZM74.5832 341.961C73.1459 341.961 72.0532 341.506 71.3052 340.597C70.5572 339.687 70.1832 338.499 70.1832 337.033V330.785C70.1832 330.638 70.2272 330.521 70.3152 330.433C70.4032 330.345 70.5206 330.301 70.6672 330.301H71.0412C71.1879 330.301 71.3052 330.345 71.3932 330.433C71.4812 330.521 71.5252 330.638 71.5252 330.785V336.923C71.5252 339.431 72.6179 340.685 74.8032 340.685C75.8592 340.685 76.6952 340.355 77.3112 339.695C77.9419 339.02 78.2572 338.096 78.2572 336.923V330.785C78.2572 330.638 78.3012 330.521 78.3892 330.433C78.4772 330.345 78.5946 330.301 78.7412 330.301H79.1152C79.2619 330.301 79.3792 330.345 79.4672 330.433C79.5552 330.521 79.5992 330.638 79.5992 330.785V341.257C79.5992 341.403 79.5552 341.521 79.4672 341.609C79.3792 341.697 79.2619 341.741 79.1152 341.741H78.7412C78.5946 341.741 78.4772 341.697 78.3892 341.609C78.3012 341.521 78.2572 341.403 78.2572 341.257V340.223C77.8172 340.795 77.3112 341.227 76.7392 341.521C76.1819 341.814 75.4632 341.961 74.5832 341.961ZM83.6464 341.741C83.4997 341.741 83.3824 341.697 83.2944 341.609C83.2064 341.521 83.1624 341.403 83.1624 341.257V330.807C83.1624 330.66 83.2064 330.543 83.2944 330.455C83.3824 330.352 83.4997 330.301 83.6464 330.301H83.9984C84.145 330.301 84.2624 330.352 84.3504 330.455C84.453 330.543 84.5044 330.66 84.5044 330.807V331.819C85.0324 330.807 86.0297 330.301 87.4964 330.301H88.3104C88.457 330.301 88.5744 330.345 88.6624 330.433C88.7504 330.521 88.7944 330.638 88.7944 330.785V331.093C88.7944 331.239 88.7504 331.357 88.6624 331.445C88.5744 331.533 88.457 331.577 88.3104 331.577H87.3644C86.4844 331.577 85.7877 331.833 85.2744 332.347C84.761 332.86 84.5044 333.557 84.5044 334.437V341.257C84.5044 341.403 84.453 341.521 84.3504 341.609C84.2624 341.697 84.145 341.741 83.9984 341.741H83.6464ZM100.302 341.961C98.7762 341.961 97.5882 341.499 96.7376 340.575C95.9016 339.636 95.4616 338.426 95.4176 336.945L95.3956 336.021L95.4176 335.097C95.4616 333.615 95.9016 332.413 96.7376 331.489C97.5882 330.55 98.7762 330.081 100.302 330.081C101.827 330.081 103.008 330.55 103.844 331.489C104.694 332.413 105.142 333.615 105.186 335.097C105.2 335.243 105.208 335.551 105.208 336.021C105.208 336.49 105.2 336.798 105.186 336.945C105.142 338.426 104.694 339.636 103.844 340.575C103.008 341.499 101.827 341.961 100.302 341.961ZM100.302 340.685C101.343 340.685 102.179 340.355 102.81 339.695C103.455 339.02 103.8 338.067 103.844 336.835C103.858 336.688 103.866 336.417 103.866 336.021C103.866 335.625 103.858 335.353 103.844 335.207C103.8 333.975 103.455 333.029 102.81 332.369C102.179 331.694 101.343 331.357 100.302 331.357C99.2602 331.357 98.4169 331.694 97.7716 332.369C97.1409 333.029 96.8036 333.975 96.7596 335.207L96.7376 336.021L96.7596 336.835C96.8036 338.067 97.1409 339.02 97.7716 339.695C98.4169 340.355 99.2602 340.685 100.302 340.685ZM108.697 341.741C108.55 341.741 108.433 341.697 108.345 341.609C108.257 341.521 108.213 341.403 108.213 341.257V330.807C108.213 330.66 108.257 330.543 108.345 330.455C108.433 330.352 108.55 330.301 108.697 330.301H109.049C109.196 330.301 109.313 330.352 109.401 330.455C109.504 330.543 109.555 330.66 109.555 330.807V331.819C110.083 330.807 111.08 330.301 112.547 330.301H113.361C113.508 330.301 113.625 330.345 113.713 330.433C113.801 330.521 113.845 330.638 113.845 330.785V331.093C113.845 331.239 113.801 331.357 113.713 331.445C113.625 331.533 113.508 331.577 113.361 331.577H112.415C111.535 331.577 110.838 331.833 110.325 332.347C109.812 332.86 109.555 333.557 109.555 334.437V341.257C109.555 341.403 109.504 341.521 109.401 341.609C109.313 341.697 109.196 341.741 109.049 341.741H108.697ZM119.718 341.961C118.134 341.961 116.961 341.447 116.198 340.421C115.45 339.379 115.054 338.118 115.01 336.637L114.988 336.021L115.01 335.405C115.054 333.923 115.45 332.669 116.198 331.643C116.961 330.601 118.134 330.081 119.718 330.081C121.317 330.081 122.549 330.66 123.414 331.819V326.605C123.414 326.458 123.458 326.341 123.546 326.253C123.634 326.165 123.752 326.121 123.898 326.121H124.272C124.419 326.121 124.536 326.165 124.624 326.253C124.712 326.341 124.756 326.458 124.756 326.605V341.257C124.756 341.403 124.712 341.521 124.624 341.609C124.536 341.697 124.419 341.741 124.272 341.741H123.898C123.752 341.741 123.634 341.697 123.546 341.609C123.458 341.521 123.414 341.403 123.414 341.257V340.223C122.564 341.381 121.332 341.961 119.718 341.961ZM119.85 340.685C121.009 340.685 121.882 340.303 122.468 339.541C123.055 338.763 123.37 337.854 123.414 336.813C123.429 336.666 123.436 336.38 123.436 335.955C123.436 335.529 123.429 335.243 123.414 335.097C123.4 334.466 123.26 333.872 122.996 333.315C122.732 332.743 122.336 332.273 121.808 331.907C121.28 331.54 120.628 331.357 119.85 331.357C118.662 331.357 117.79 331.738 117.232 332.501C116.69 333.249 116.396 334.217 116.352 335.405L116.33 336.021C116.33 337.385 116.594 338.507 117.122 339.387C117.65 340.252 118.56 340.685 119.85 340.685ZM132.59 341.961C131.197 341.961 130.075 341.506 129.224 340.597C128.373 339.673 127.889 338.441 127.772 336.901L127.75 336.021L127.772 335.141C127.889 333.615 128.366 332.391 129.202 331.467C130.053 330.543 131.182 330.081 132.59 330.081C134.115 330.081 135.303 330.587 136.154 331.599C137.019 332.611 137.452 333.997 137.452 335.757V336.087C137.452 336.233 137.401 336.351 137.298 336.439C137.21 336.527 137.093 336.571 136.946 336.571H129.114V336.791C129.143 337.48 129.297 338.125 129.576 338.727C129.869 339.313 130.273 339.79 130.786 340.157C131.299 340.509 131.901 340.685 132.59 340.685C133.397 340.685 134.049 340.531 134.548 340.223C135.061 339.9 135.428 339.577 135.648 339.255C135.78 339.079 135.875 338.969 135.934 338.925C136.007 338.881 136.132 338.859 136.308 338.859H136.66C136.792 338.859 136.902 338.895 136.99 338.969C137.078 339.042 137.122 339.137 137.122 339.255C137.122 339.563 136.924 339.937 136.528 340.377C136.147 340.802 135.611 341.176 134.922 341.499C134.233 341.807 133.455 341.961 132.59 341.961ZM136.11 335.339V335.251C136.11 334.121 135.787 333.19 135.142 332.457C134.511 331.723 133.661 331.357 132.59 331.357C131.519 331.357 130.669 331.723 130.038 332.457C129.422 333.19 129.114 334.121 129.114 335.251V335.339H136.11ZM140.838 341.741C140.691 341.741 140.574 341.697 140.486 341.609C140.398 341.521 140.354 341.403 140.354 341.257V330.807C140.354 330.66 140.398 330.543 140.486 330.455C140.574 330.352 140.691 330.301 140.838 330.301H141.19C141.336 330.301 141.454 330.352 141.542 330.455C141.644 330.543 141.696 330.66 141.696 330.807V331.819C142.224 330.807 143.221 330.301 144.688 330.301H145.502C145.648 330.301 145.766 330.345 145.854 330.433C145.942 330.521 145.986 330.638 145.986 330.785V331.093C145.986 331.239 145.942 331.357 145.854 331.445C145.766 331.533 145.648 331.577 145.502 331.577H144.556C143.676 331.577 142.979 331.833 142.466 332.347C141.952 332.86 141.696 333.557 141.696 334.437V341.257C141.696 341.403 141.644 341.521 141.542 341.609C141.454 341.697 141.336 341.741 141.19 341.741H140.838ZM153.643 341.741C153.496 341.741 153.379 341.697 153.291 341.609C153.203 341.521 153.159 341.403 153.159 341.257V326.605C153.159 326.458 153.203 326.341 153.291 326.253C153.379 326.165 153.496 326.121 153.643 326.121H154.017C154.164 326.121 154.281 326.165 154.369 326.253C154.457 326.341 154.501 326.458 154.501 326.605V331.819C154.941 331.247 155.44 330.814 155.997 330.521C156.569 330.227 157.302 330.081 158.197 330.081C159.634 330.081 160.742 330.543 161.519 331.467C162.296 332.376 162.685 333.557 162.685 335.009V341.257C162.685 341.403 162.641 341.521 162.553 341.609C162.465 341.697 162.348 341.741 162.201 341.741H161.827C161.68 341.741 161.563 341.697 161.475 341.609C161.387 341.521 161.343 341.403 161.343 341.257V335.119C161.343 333.931 161.05 333.007 160.463 332.347C159.891 331.687 159.062 331.357 157.977 331.357C156.921 331.357 156.078 331.694 155.447 332.369C154.816 333.029 154.501 333.945 154.501 335.119V341.257C154.501 341.403 154.457 341.521 154.369 341.609C154.281 341.697 154.164 341.741 154.017 341.741H153.643ZM169.215 341.961C168.511 341.961 167.858 341.814 167.257 341.521C166.656 341.227 166.172 340.831 165.805 340.333C165.453 339.834 165.277 339.284 165.277 338.683C165.277 337.715 165.666 336.923 166.443 336.307C167.235 335.691 168.298 335.295 169.633 335.119L173.109 334.635V333.865C173.109 333.058 172.86 332.442 172.361 332.017C171.877 331.577 171.129 331.357 170.117 331.357C169.369 331.357 168.753 331.503 168.269 331.797C167.8 332.09 167.499 332.442 167.367 332.853C167.308 333.029 167.235 333.153 167.147 333.227C167.074 333.285 166.971 333.315 166.839 333.315H166.531C166.399 333.315 166.282 333.271 166.179 333.183C166.091 333.08 166.047 332.963 166.047 332.831C166.047 332.508 166.194 332.134 166.487 331.709C166.78 331.269 167.235 330.887 167.851 330.565C168.467 330.242 169.222 330.081 170.117 330.081C171.686 330.081 172.801 330.455 173.461 331.203C174.121 331.951 174.451 332.86 174.451 333.931V341.257C174.451 341.403 174.407 341.521 174.319 341.609C174.231 341.697 174.114 341.741 173.967 341.741H173.593C173.446 341.741 173.329 341.697 173.241 341.609C173.153 341.521 173.109 341.403 173.109 341.257V340.223C172.786 340.707 172.31 341.117 171.679 341.455C171.063 341.792 170.242 341.961 169.215 341.961ZM169.435 340.685C170.506 340.685 171.386 340.333 172.075 339.629C172.764 338.925 173.109 337.913 173.109 336.593V335.845L170.271 336.241C169.068 336.402 168.159 336.681 167.543 337.077C166.927 337.473 166.619 337.971 166.619 338.573C166.619 339.247 166.898 339.768 167.455 340.135C168.027 340.501 168.687 340.685 169.435 340.685ZM181.56 341.961C180.607 341.961 179.8 341.799 179.14 341.477C178.495 341.154 178.003 340.787 177.666 340.377C177.343 339.966 177.182 339.636 177.182 339.387C177.182 339.255 177.233 339.152 177.336 339.079C177.439 338.991 177.549 338.947 177.666 338.947H177.996C178.099 338.947 178.179 338.969 178.238 339.013C178.311 339.042 178.392 339.115 178.48 339.233C178.803 339.687 179.191 340.047 179.646 340.311C180.115 340.56 180.753 340.685 181.56 340.685C182.469 340.685 183.203 340.516 183.76 340.179C184.317 339.827 184.596 339.328 184.596 338.683C184.596 338.287 184.479 337.964 184.244 337.715C184.024 337.465 183.657 337.253 183.144 337.077C182.645 336.886 181.897 336.673 180.9 336.439C179.595 336.145 178.7 335.742 178.216 335.229C177.747 334.715 177.512 334.063 177.512 333.271C177.512 332.728 177.659 332.215 177.952 331.731C178.26 331.247 178.707 330.851 179.294 330.543C179.895 330.235 180.614 330.081 181.45 330.081C182.33 330.081 183.071 330.235 183.672 330.543C184.288 330.836 184.743 331.181 185.036 331.577C185.344 331.973 185.498 332.295 185.498 332.545C185.498 332.677 185.447 332.787 185.344 332.875C185.256 332.948 185.146 332.985 185.014 332.985H184.684C184.479 332.985 184.317 332.889 184.2 332.699C183.907 332.259 183.569 331.929 183.188 331.709C182.821 331.474 182.242 331.357 181.45 331.357C180.599 331.357 179.954 331.533 179.514 331.885C179.074 332.237 178.854 332.699 178.854 333.271C178.854 333.623 178.942 333.916 179.118 334.151C179.294 334.385 179.624 334.605 180.108 334.811C180.592 335.001 181.296 335.199 182.22 335.405C183.584 335.713 184.545 336.123 185.102 336.637C185.659 337.15 185.938 337.832 185.938 338.683C185.938 339.284 185.769 339.834 185.432 340.333C185.095 340.831 184.596 341.227 183.936 341.521C183.276 341.814 182.484 341.961 181.56 341.961ZM199.49 341.961C197.877 341.961 196.645 341.381 195.794 340.223V341.257C195.794 341.403 195.75 341.521 195.662 341.609C195.574 341.697 195.457 341.741 195.31 341.741H194.936C194.789 341.741 194.672 341.697 194.584 341.609C194.496 341.521 194.452 341.403 194.452 341.257V326.605C194.452 326.458 194.496 326.341 194.584 326.253C194.672 326.165 194.789 326.121 194.936 326.121H195.31C195.457 326.121 195.574 326.165 195.662 326.253C195.75 326.341 195.794 326.458 195.794 326.605V331.819C196.659 330.66 197.891 330.081 199.49 330.081C201.074 330.081 202.24 330.601 202.988 331.643C203.751 332.669 204.154 333.923 204.198 335.405C204.213 335.551 204.22 335.757 204.22 336.021C204.22 336.285 204.213 336.49 204.198 336.637C204.154 338.118 203.751 339.379 202.988 340.421C202.24 341.447 201.074 341.961 199.49 341.961ZM199.358 340.685C200.546 340.685 201.411 340.311 201.954 339.563C202.511 338.8 202.812 337.825 202.856 336.637C202.871 336.49 202.878 336.285 202.878 336.021C202.878 334.657 202.614 333.542 202.086 332.677C201.558 331.797 200.649 331.357 199.358 331.357C198.581 331.357 197.928 331.54 197.4 331.907C196.872 332.273 196.476 332.743 196.212 333.315C195.948 333.872 195.809 334.466 195.794 335.097L195.772 335.955L195.794 336.813C195.838 337.854 196.153 338.763 196.74 339.541C197.327 340.303 198.199 340.685 199.358 340.685ZM211.438 341.961C210.044 341.961 208.922 341.506 208.072 340.597C207.221 339.673 206.737 338.441 206.62 336.901L206.598 336.021L206.62 335.141C206.737 333.615 207.214 332.391 208.05 331.467C208.9 330.543 210.03 330.081 211.438 330.081C212.963 330.081 214.151 330.587 215.002 331.599C215.867 332.611 216.3 333.997 216.3 335.757V336.087C216.3 336.233 216.248 336.351 216.146 336.439C216.058 336.527 215.94 336.571 215.794 336.571H207.962V336.791C207.991 337.48 208.145 338.125 208.424 338.727C208.717 339.313 209.12 339.79 209.634 340.157C210.147 340.509 210.748 340.685 211.438 340.685C212.244 340.685 212.897 340.531 213.396 340.223C213.909 339.9 214.276 339.577 214.496 339.255C214.628 339.079 214.723 338.969 214.782 338.925C214.855 338.881 214.98 338.859 215.156 338.859H215.508C215.64 338.859 215.75 338.895 215.838 338.969C215.926 339.042 215.97 339.137 215.97 339.255C215.97 339.563 215.772 339.937 215.376 340.377C214.994 340.802 214.459 341.176 213.77 341.499C213.08 341.807 212.303 341.961 211.438 341.961ZM214.958 335.339V335.251C214.958 334.121 214.635 333.19 213.99 332.457C213.359 331.723 212.508 331.357 211.438 331.357C210.367 331.357 209.516 331.723 208.886 332.457C208.27 333.19 207.962 334.121 207.962 335.251V335.339H214.958ZM223.447 341.961C222.054 341.961 220.932 341.506 220.081 340.597C219.231 339.673 218.747 338.441 218.629 336.901L218.607 336.021L218.629 335.141C218.747 333.615 219.223 332.391 220.059 331.467C220.91 330.543 222.039 330.081 223.447 330.081C224.973 330.081 226.161 330.587 227.011 331.599C227.877 332.611 228.309 333.997 228.309 335.757V336.087C228.309 336.233 228.258 336.351 228.155 336.439C228.067 336.527 227.95 336.571 227.803 336.571H219.971V336.791C220.001 337.48 220.155 338.125 220.433 338.727C220.727 339.313 221.13 339.79 221.643 340.157C222.157 340.509 222.758 340.685 223.447 340.685C224.254 340.685 224.907 340.531 225.405 340.223C225.919 339.9 226.285 339.577 226.505 339.255C226.637 339.079 226.733 338.969 226.791 338.925C226.865 338.881 226.989 338.859 227.165 338.859H227.517C227.649 338.859 227.759 338.895 227.847 338.969C227.935 339.042 227.979 339.137 227.979 339.255C227.979 339.563 227.781 339.937 227.385 340.377C227.004 340.802 226.469 341.176 225.779 341.499C225.09 341.807 224.313 341.961 223.447 341.961ZM226.967 335.339V335.251C226.967 334.121 226.645 333.19 225.999 332.457C225.369 331.723 224.518 331.357 223.447 331.357C222.377 331.357 221.526 331.723 220.895 332.457C220.279 333.19 219.971 334.121 219.971 335.251V335.339H226.967ZM231.695 341.741C231.549 341.741 231.431 341.697 231.343 341.609C231.255 341.521 231.211 341.403 231.211 341.257V330.785C231.211 330.638 231.255 330.521 231.343 330.433C231.431 330.345 231.549 330.301 231.695 330.301H232.069C232.216 330.301 232.333 330.345 232.421 330.433C232.509 330.521 232.553 330.638 232.553 330.785V331.819C232.993 331.247 233.492 330.814 234.049 330.521C234.621 330.227 235.355 330.081 236.249 330.081C237.687 330.081 238.794 330.543 239.571 331.467C240.349 332.376 240.737 333.557 240.737 335.009V341.257C240.737 341.403 240.693 341.521 240.605 341.609C240.517 341.697 240.4 341.741 240.253 341.741H239.879C239.733 341.741 239.615 341.697 239.527 341.609C239.439 341.521 239.395 341.403 239.395 341.257V335.119C239.395 333.931 239.102 333.007 238.515 332.347C237.943 331.687 237.115 331.357 236.029 331.357C234.973 331.357 234.13 331.694 233.499 332.369C232.869 333.029 232.553 333.945 232.553 335.119V341.257C232.553 341.403 232.509 341.521 232.421 341.609C232.333 341.697 232.216 341.741 232.069 341.741H231.695ZM253.49 341.961C252.536 341.961 251.73 341.799 251.07 341.477C250.424 341.154 249.933 340.787 249.596 340.377C249.273 339.966 249.112 339.636 249.112 339.387C249.112 339.255 249.163 339.152 249.266 339.079C249.368 338.991 249.478 338.947 249.596 338.947H249.926C250.028 338.947 250.109 338.969 250.168 339.013C250.241 339.042 250.322 339.115 250.41 339.233C250.732 339.687 251.121 340.047 251.576 340.311C252.045 340.56 252.683 340.685 253.49 340.685C254.399 340.685 255.132 340.516 255.69 340.179C256.247 339.827 256.526 339.328 256.526 338.683C256.526 338.287 256.408 337.964 256.174 337.715C255.954 337.465 255.587 337.253 255.074 337.077C254.575 336.886 253.827 336.673 252.83 336.439C251.524 336.145 250.63 335.742 250.146 335.229C249.676 334.715 249.442 334.063 249.442 333.271C249.442 332.728 249.588 332.215 249.882 331.731C250.19 331.247 250.637 330.851 251.224 330.543C251.825 330.235 252.544 330.081 253.38 330.081C254.26 330.081 255 330.235 255.602 330.543C256.218 330.836 256.672 331.181 256.966 331.577C257.274 331.973 257.428 332.295 257.428 332.545C257.428 332.677 257.376 332.787 257.274 332.875C257.186 332.948 257.076 332.985 256.944 332.985H256.614C256.408 332.985 256.247 332.889 256.13 332.699C255.836 332.259 255.499 331.929 255.118 331.709C254.751 331.474 254.172 331.357 253.38 331.357C252.529 331.357 251.884 331.533 251.444 331.885C251.004 332.237 250.784 332.699 250.784 333.271C250.784 333.623 250.872 333.916 251.048 334.151C251.224 334.385 251.554 334.605 252.038 334.811C252.522 335.001 253.226 335.199 254.15 335.405C255.514 335.713 256.474 336.123 257.032 336.637C257.589 337.15 257.868 337.832 257.868 338.683C257.868 339.284 257.699 339.834 257.362 340.333C257.024 340.831 256.526 341.227 255.866 341.521C255.206 341.814 254.414 341.961 253.49 341.961ZM264.978 341.961C263.54 341.961 262.448 341.506 261.7 340.597C260.952 339.687 260.578 338.499 260.578 337.033V330.785C260.578 330.638 260.622 330.521 260.71 330.433C260.798 330.345 260.915 330.301 261.062 330.301H261.436C261.582 330.301 261.7 330.345 261.788 330.433C261.876 330.521 261.92 330.638 261.92 330.785V336.923C261.92 339.431 263.012 340.685 265.198 340.685C266.254 340.685 267.09 340.355 267.706 339.695C268.336 339.02 268.652 338.096 268.652 336.923V330.785C268.652 330.638 268.696 330.521 268.784 330.433C268.872 330.345 268.989 330.301 269.136 330.301H269.51C269.656 330.301 269.774 330.345 269.862 330.433C269.95 330.521 269.994 330.638 269.994 330.785V341.257C269.994 341.403 269.95 341.521 269.862 341.609C269.774 341.697 269.656 341.741 269.51 341.741H269.136C268.989 341.741 268.872 341.697 268.784 341.609C268.696 341.521 268.652 341.403 268.652 341.257V340.223C268.212 340.795 267.706 341.227 267.134 341.521C266.576 341.814 265.858 341.961 264.978 341.961ZM277.891 341.961C276.366 341.961 275.185 341.521 274.349 340.641C273.513 339.746 273.073 338.499 273.029 336.901L273.007 336.021L273.029 335.141C273.073 333.542 273.513 332.303 274.349 331.423C275.185 330.528 276.366 330.081 277.891 330.081C278.859 330.081 279.68 330.257 280.355 330.609C281.044 330.946 281.558 331.386 281.895 331.929C282.232 332.457 282.416 333.007 282.445 333.579C282.46 333.711 282.416 333.828 282.313 333.931C282.21 334.019 282.093 334.063 281.961 334.063H281.653C281.506 334.063 281.396 334.033 281.323 333.975C281.264 333.901 281.198 333.777 281.125 333.601C280.832 332.794 280.421 332.222 279.893 331.885C279.365 331.533 278.698 331.357 277.891 331.357C276.835 331.357 275.992 331.679 275.361 332.325C274.745 332.955 274.415 333.931 274.371 335.251L274.349 336.021L274.371 336.791C274.415 338.111 274.745 339.093 275.361 339.739C275.992 340.369 276.835 340.685 277.891 340.685C278.698 340.685 279.365 340.516 279.893 340.179C280.421 339.827 280.832 339.247 281.125 338.441C281.198 338.265 281.264 338.147 281.323 338.089C281.396 338.015 281.506 337.979 281.653 337.979H281.961C282.093 337.979 282.21 338.03 282.313 338.133C282.416 338.221 282.46 338.331 282.445 338.463C282.416 339.035 282.232 339.592 281.895 340.135C281.558 340.663 281.044 341.103 280.355 341.455C279.68 341.792 278.859 341.961 277.891 341.961ZM289.686 341.961C288.16 341.961 286.98 341.521 286.144 340.641C285.308 339.746 284.868 338.499 284.824 336.901L284.802 336.021L284.824 335.141C284.868 333.542 285.308 332.303 286.144 331.423C286.98 330.528 288.16 330.081 289.686 330.081C290.654 330.081 291.475 330.257 292.15 330.609C292.839 330.946 293.352 331.386 293.69 331.929C294.027 332.457 294.21 333.007 294.24 333.579C294.254 333.711 294.21 333.828 294.108 333.931C294.005 334.019 293.888 334.063 293.756 334.063H293.448C293.301 334.063 293.191 334.033 293.118 333.975C293.059 333.901 292.993 333.777 292.92 333.601C292.626 332.794 292.216 332.222 291.688 331.885C291.16 331.533 290.492 331.357 289.686 331.357C288.63 331.357 287.786 331.679 287.156 332.325C286.54 332.955 286.21 333.931 286.166 335.251L286.144 336.021L286.166 336.791C286.21 338.111 286.54 339.093 287.156 339.739C287.786 340.369 288.63 340.685 289.686 340.685C290.492 340.685 291.16 340.516 291.688 340.179C292.216 339.827 292.626 339.247 292.92 338.441C292.993 338.265 293.059 338.147 293.118 338.089C293.191 338.015 293.301 337.979 293.448 337.979H293.756C293.888 337.979 294.005 338.03 294.108 338.133C294.21 338.221 294.254 338.331 294.24 338.463C294.21 339.035 294.027 339.592 293.69 340.135C293.352 340.663 292.839 341.103 292.15 341.455C291.475 341.792 290.654 341.961 289.686 341.961ZM301.393 341.961C299.999 341.961 298.877 341.506 298.027 340.597C297.176 339.673 296.692 338.441 296.575 336.901L296.553 336.021L296.575 335.141C296.692 333.615 297.169 332.391 298.005 331.467C298.855 330.543 299.985 330.081 301.393 330.081C302.918 330.081 304.106 330.587 304.957 331.599C305.822 332.611 306.255 333.997 306.255 335.757V336.087C306.255 336.233 306.203 336.351 306.101 336.439C306.013 336.527 305.895 336.571 305.749 336.571H297.917V336.791C297.946 337.48 298.1 338.125 298.379 338.727C298.672 339.313 299.075 339.79 299.589 340.157C300.102 340.509 300.703 340.685 301.393 340.685C302.199 340.685 302.852 340.531 303.351 340.223C303.864 339.9 304.231 339.577 304.451 339.255C304.583 339.079 304.678 338.969 304.737 338.925C304.81 338.881 304.935 338.859 305.111 338.859H305.463C305.595 338.859 305.705 338.895 305.793 338.969C305.881 339.042 305.925 339.137 305.925 339.255C305.925 339.563 305.727 339.937 305.331 340.377C304.949 340.802 304.414 341.176 303.725 341.499C303.035 341.807 302.258 341.961 301.393 341.961ZM304.913 335.339V335.251C304.913 334.121 304.59 333.19 303.945 332.457C303.314 331.723 302.463 331.357 301.393 331.357C300.322 331.357 299.471 331.723 298.841 332.457C298.225 333.19 297.917 334.121 297.917 335.251V335.339H304.913ZM312.787 341.961C311.833 341.961 311.027 341.799 310.367 341.477C309.721 341.154 309.23 340.787 308.893 340.377C308.57 339.966 308.409 339.636 308.409 339.387C308.409 339.255 308.46 339.152 308.563 339.079C308.665 338.991 308.775 338.947 308.893 338.947H309.223C309.325 338.947 309.406 338.969 309.465 339.013C309.538 339.042 309.619 339.115 309.707 339.233C310.029 339.687 310.418 340.047 310.873 340.311C311.342 340.56 311.98 340.685 312.787 340.685C313.696 340.685 314.429 340.516 314.987 340.179C315.544 339.827 315.823 339.328 315.823 338.683C315.823 338.287 315.705 337.964 315.471 337.715C315.251 337.465 314.884 337.253 314.371 337.077C313.872 336.886 313.124 336.673 312.127 336.439C310.821 336.145 309.927 335.742 309.443 335.229C308.973 334.715 308.739 334.063 308.739 333.271C308.739 332.728 308.885 332.215 309.179 331.731C309.487 331.247 309.934 330.851 310.521 330.543C311.122 330.235 311.841 330.081 312.677 330.081C313.557 330.081 314.297 330.235 314.899 330.543C315.515 330.836 315.969 331.181 316.263 331.577C316.571 331.973 316.725 332.295 316.725 332.545C316.725 332.677 316.673 332.787 316.571 332.875C316.483 332.948 316.373 332.985 316.241 332.985H315.911C315.705 332.985 315.544 332.889 315.427 332.699C315.133 332.259 314.796 331.929 314.415 331.709C314.048 331.474 313.469 331.357 312.677 331.357C311.826 331.357 311.181 331.533 310.741 331.885C310.301 332.237 310.081 332.699 310.081 333.271C310.081 333.623 310.169 333.916 310.345 334.151C310.521 334.385 310.851 334.605 311.335 334.811C311.819 335.001 312.523 335.199 313.447 335.405C314.811 335.713 315.771 336.123 316.329 336.637C316.886 337.15 317.165 337.832 317.165 338.683C317.165 339.284 316.996 339.834 316.659 340.333C316.321 340.831 315.823 341.227 315.163 341.521C314.503 341.814 313.711 341.961 312.787 341.961ZM321.547 341.741C321.4 341.741 321.283 341.697 321.195 341.609C321.107 341.521 321.063 341.403 321.063 341.257V331.577H319.105C318.958 331.577 318.841 331.533 318.753 331.445C318.665 331.357 318.621 331.239 318.621 331.093V330.785C318.621 330.638 318.665 330.521 318.753 330.433C318.841 330.345 318.958 330.301 319.105 330.301H321.063V329.047C321.063 327.932 321.305 327.059 321.789 326.429C322.273 325.783 323.138 325.461 324.385 325.461H325.529C325.675 325.461 325.793 325.505 325.881 325.593C325.969 325.681 326.013 325.798 326.013 325.945V326.253C326.013 326.399 325.969 326.517 325.881 326.605C325.793 326.693 325.675 326.737 325.529 326.737H324.385C323.637 326.737 323.116 326.935 322.823 327.331C322.544 327.712 322.405 328.321 322.405 329.157V330.301H325.309C325.455 330.301 325.573 330.345 325.661 330.433C325.749 330.521 325.793 330.638 325.793 330.785V331.093C325.793 331.239 325.749 331.357 325.661 331.445C325.573 331.533 325.455 331.577 325.309 331.577H322.405V341.257C322.405 341.403 322.361 341.521 322.273 341.609C322.185 341.697 322.067 341.741 321.921 341.741H321.547ZM332.202 341.961C330.765 341.961 329.672 341.506 328.924 340.597C328.176 339.687 327.802 338.499 327.802 337.033V330.785C327.802 330.638 327.846 330.521 327.934 330.433C328.022 330.345 328.14 330.301 328.286 330.301H328.66C328.807 330.301 328.924 330.345 329.012 330.433C329.1 330.521 329.144 330.638 329.144 330.785V336.923C329.144 339.431 330.237 340.685 332.422 340.685C333.478 340.685 334.314 340.355 334.93 339.695C335.561 339.02 335.876 338.096 335.876 336.923V330.785C335.876 330.638 335.92 330.521 336.008 330.433C336.096 330.345 336.214 330.301 336.36 330.301H336.734C336.881 330.301 336.998 330.345 337.086 330.433C337.174 330.521 337.218 330.638 337.218 330.785V341.257C337.218 341.403 337.174 341.521 337.086 341.609C336.998 341.697 336.881 341.741 336.734 341.741H336.36C336.214 341.741 336.096 341.697 336.008 341.609C335.92 341.521 335.876 341.403 335.876 341.257V340.223C335.436 340.795 334.93 341.227 334.358 341.521C333.801 341.814 333.082 341.961 332.202 341.961ZM341.288 341.741C341.141 341.741 341.024 341.697 340.936 341.609C340.848 341.521 340.804 341.403 340.804 341.257V326.605C340.804 326.458 340.848 326.341 340.936 326.253C341.024 326.165 341.141 326.121 341.288 326.121H341.662C341.808 326.121 341.926 326.165 342.014 326.253C342.102 326.341 342.146 326.458 342.146 326.605V341.257C342.146 341.403 342.102 341.521 342.014 341.609C341.926 341.697 341.808 341.741 341.662 341.741H341.288ZM346.229 341.741C346.082 341.741 345.965 341.697 345.877 341.609C345.789 341.521 345.745 341.403 345.745 341.257V326.605C345.745 326.458 345.789 326.341 345.877 326.253C345.965 326.165 346.082 326.121 346.229 326.121H346.603C346.75 326.121 346.867 326.165 346.955 326.253C347.043 326.341 347.087 326.458 347.087 326.605V341.257C347.087 341.403 347.043 341.521 346.955 341.609C346.867 341.697 346.75 341.741 346.603 341.741H346.229ZM352.6 345.921C352.483 345.921 352.38 345.877 352.292 345.789C352.204 345.701 352.16 345.598 352.16 345.481C352.16 345.407 352.204 345.261 352.292 345.041L353.986 341.081L349.784 331.181C349.696 330.961 349.652 330.814 349.652 330.741C349.652 330.623 349.696 330.521 349.784 330.433C349.872 330.345 349.975 330.301 350.092 330.301H350.554C350.789 330.301 350.958 330.411 351.06 330.631L354.756 339.343L358.54 330.631C358.658 330.411 358.826 330.301 359.046 330.301H359.486C359.604 330.301 359.706 330.345 359.794 330.433C359.882 330.521 359.926 330.623 359.926 330.741C359.926 330.814 359.882 330.961 359.794 331.181L353.546 345.591C353.444 345.811 353.275 345.921 353.04 345.921H352.6ZM371.778 341.961C370.252 341.961 369.072 341.521 368.236 340.641C367.4 339.746 366.96 338.499 366.916 336.901L366.894 336.021L366.916 335.141C366.96 333.542 367.4 332.303 368.236 331.423C369.072 330.528 370.252 330.081 371.778 330.081C372.746 330.081 373.567 330.257 374.242 330.609C374.931 330.946 375.444 331.386 375.782 331.929C376.119 332.457 376.302 333.007 376.332 333.579C376.346 333.711 376.302 333.828 376.2 333.931C376.097 334.019 375.98 334.063 375.848 334.063H375.54C375.393 334.063 375.283 334.033 375.21 333.975C375.151 333.901 375.085 333.777 375.012 333.601C374.718 332.794 374.308 332.222 373.78 331.885C373.252 331.533 372.584 331.357 371.778 331.357C370.722 331.357 369.878 331.679 369.248 332.325C368.632 332.955 368.302 333.931 368.258 335.251L368.236 336.021L368.258 336.791C368.302 338.111 368.632 339.093 369.248 339.739C369.878 340.369 370.722 340.685 371.778 340.685C372.584 340.685 373.252 340.516 373.78 340.179C374.308 339.827 374.718 339.247 375.012 338.441C375.085 338.265 375.151 338.147 375.21 338.089C375.283 338.015 375.393 337.979 375.54 337.979H375.848C375.98 337.979 376.097 338.03 376.2 338.133C376.302 338.221 376.346 338.331 376.332 338.463C376.302 339.035 376.119 339.592 375.782 340.135C375.444 340.663 374.931 341.103 374.242 341.455C373.567 341.792 372.746 341.961 371.778 341.961ZM383.595 341.961C382.069 341.961 380.881 341.499 380.031 340.575C379.195 339.636 378.755 338.426 378.711 336.945L378.689 336.021L378.711 335.097C378.755 333.615 379.195 332.413 380.031 331.489C380.881 330.55 382.069 330.081 383.595 330.081C385.12 330.081 386.301 330.55 387.137 331.489C387.987 332.413 388.435 333.615 388.479 335.097C388.493 335.243 388.501 335.551 388.501 336.021C388.501 336.49 388.493 336.798 388.479 336.945C388.435 338.426 387.987 339.636 387.137 340.575C386.301 341.499 385.12 341.961 383.595 341.961ZM383.595 340.685C384.636 340.685 385.472 340.355 386.103 339.695C386.748 339.02 387.093 338.067 387.137 336.835C387.151 336.688 387.159 336.417 387.159 336.021C387.159 335.625 387.151 335.353 387.137 335.207C387.093 333.975 386.748 333.029 386.103 332.369C385.472 331.694 384.636 331.357 383.595 331.357C382.553 331.357 381.71 331.694 381.065 332.369C380.434 333.029 380.097 333.975 380.053 335.207L380.031 336.021L380.053 336.835C380.097 338.067 380.434 339.02 381.065 339.695C381.71 340.355 382.553 340.685 383.595 340.685ZM391.99 341.741C391.843 341.741 391.726 341.697 391.638 341.609C391.55 341.521 391.506 341.403 391.506 341.257V330.785C391.506 330.638 391.55 330.521 391.638 330.433C391.726 330.345 391.843 330.301 391.99 330.301H392.364C392.511 330.301 392.628 330.345 392.716 330.433C392.804 330.521 392.848 330.638 392.848 330.785V331.819C393.288 331.247 393.787 330.814 394.344 330.521C394.916 330.227 395.649 330.081 396.544 330.081C397.981 330.081 399.089 330.543 399.866 331.467C400.643 332.376 401.032 333.557 401.032 335.009V341.257C401.032 341.403 400.988 341.521 400.9 341.609C400.812 341.697 400.695 341.741 400.548 341.741H400.174C400.027 341.741 399.91 341.697 399.822 341.609C399.734 341.521 399.69 341.403 399.69 341.257V335.119C399.69 333.931 399.397 333.007 398.81 332.347C398.238 331.687 397.409 331.357 396.324 331.357C395.268 331.357 394.425 331.694 393.794 332.369C393.163 333.029 392.848 333.945 392.848 335.119V341.257C392.848 341.403 392.804 341.521 392.716 341.609C392.628 341.697 392.511 341.741 392.364 341.741H391.99ZM405.851 341.741C405.705 341.741 405.587 341.697 405.499 341.609C405.411 341.521 405.367 341.403 405.367 341.257V331.577H403.409C403.263 331.577 403.145 331.533 403.057 331.445C402.969 331.357 402.925 331.239 402.925 331.093V330.785C402.925 330.638 402.969 330.521 403.057 330.433C403.145 330.345 403.263 330.301 403.409 330.301H405.367V329.047C405.367 327.932 405.609 327.059 406.093 326.429C406.577 325.783 407.443 325.461 408.689 325.461H409.833C409.98 325.461 410.097 325.505 410.185 325.593C410.273 325.681 410.317 325.798 410.317 325.945V326.253C410.317 326.399 410.273 326.517 410.185 326.605C410.097 326.693 409.98 326.737 409.833 326.737H408.689C407.941 326.737 407.421 326.935 407.127 327.331C406.849 327.712 406.709 328.321 406.709 329.157V330.301H409.613C409.76 330.301 409.877 330.345 409.965 330.433C410.053 330.521 410.097 330.638 410.097 330.785V331.093C410.097 331.239 410.053 331.357 409.965 331.445C409.877 331.533 409.76 331.577 409.613 331.577H406.709V341.257C406.709 341.403 406.665 341.521 406.577 341.609C406.489 341.697 406.372 341.741 406.225 341.741H405.851ZM412.459 327.947C412.312 327.947 412.195 327.903 412.107 327.815C412.019 327.727 411.975 327.609 411.975 327.463V326.627C411.975 326.48 412.019 326.363 412.107 326.275C412.195 326.172 412.312 326.121 412.459 326.121H413.295C413.442 326.121 413.559 326.172 413.647 326.275C413.75 326.363 413.801 326.48 413.801 326.627V327.463C413.801 327.609 413.75 327.727 413.647 327.815C413.559 327.903 413.442 327.947 413.295 327.947H412.459ZM412.701 341.741C412.554 341.741 412.437 341.697 412.349 341.609C412.261 341.521 412.217 341.403 412.217 341.257V330.785C412.217 330.638 412.261 330.521 412.349 330.433C412.437 330.345 412.554 330.301 412.701 330.301H413.075C413.222 330.301 413.339 330.345 413.427 330.433C413.515 330.521 413.559 330.638 413.559 330.785V341.257C413.559 341.403 413.515 341.521 413.427 341.609C413.339 341.697 413.222 341.741 413.075 341.741H412.701ZM417.599 341.741C417.453 341.741 417.335 341.697 417.247 341.609C417.159 341.521 417.115 341.403 417.115 341.257V330.807C417.115 330.66 417.159 330.543 417.247 330.455C417.335 330.352 417.453 330.301 417.599 330.301H417.951C418.098 330.301 418.215 330.352 418.303 330.455C418.406 330.543 418.457 330.66 418.457 330.807V331.819C418.985 330.807 419.983 330.301 421.449 330.301H422.263C422.41 330.301 422.527 330.345 422.615 330.433C422.703 330.521 422.747 330.638 422.747 330.785V331.093C422.747 331.239 422.703 331.357 422.615 331.445C422.527 331.533 422.41 331.577 422.263 331.577H421.317C420.437 331.577 419.741 331.833 419.227 332.347C418.714 332.86 418.457 333.557 418.457 334.437V341.257C418.457 341.403 418.406 341.521 418.303 341.609C418.215 341.697 418.098 341.741 417.951 341.741H417.599ZM425.248 341.741C425.101 341.741 424.984 341.697 424.896 341.609C424.808 341.521 424.764 341.403 424.764 341.257V330.785C424.764 330.638 424.808 330.521 424.896 330.433C424.984 330.345 425.101 330.301 425.248 330.301H425.622C425.769 330.301 425.886 330.345 425.974 330.433C426.062 330.521 426.106 330.638 426.106 330.785V331.555C426.487 331.071 426.927 330.704 427.426 330.455C427.939 330.205 428.548 330.081 429.252 330.081C430.895 330.081 432.068 330.77 432.772 332.149C433.124 331.518 433.623 331.019 434.268 330.653C434.928 330.271 435.676 330.081 436.512 330.081C437.729 330.081 438.719 330.499 439.482 331.335C440.245 332.156 440.626 333.329 440.626 334.855V341.257C440.626 341.403 440.582 341.521 440.494 341.609C440.406 341.697 440.289 341.741 440.142 341.741H439.768C439.621 341.741 439.504 341.697 439.416 341.609C439.328 341.521 439.284 341.403 439.284 341.257V335.075C439.284 333.74 439.005 332.787 438.448 332.215C437.905 331.643 437.187 331.357 436.292 331.357C435.5 331.357 434.811 331.65 434.224 332.237C433.652 332.809 433.366 333.755 433.366 335.075V341.257C433.366 341.403 433.322 341.521 433.234 341.609C433.146 341.697 433.029 341.741 432.882 341.741H432.508C432.361 341.741 432.244 341.697 432.156 341.609C432.068 341.521 432.024 341.403 432.024 341.257V335.075C432.024 333.755 431.738 332.809 431.166 332.237C430.594 331.65 429.883 331.357 429.032 331.357C428.24 331.357 427.551 331.65 426.964 332.237C426.392 332.809 426.106 333.747 426.106 335.053V341.257C426.106 341.403 426.062 341.521 425.974 341.609C425.886 341.697 425.769 341.741 425.622 341.741H425.248ZM448.324 341.961C446.931 341.961 445.809 341.506 444.958 340.597C444.108 339.673 443.624 338.441 443.506 336.901L443.484 336.021L443.506 335.141C443.624 333.615 444.1 332.391 444.936 331.467C445.787 330.543 446.916 330.081 448.324 330.081C449.85 330.081 451.038 330.587 451.888 331.599C452.754 332.611 453.186 333.997 453.186 335.757V336.087C453.186 336.233 453.135 336.351 453.032 336.439C452.944 336.527 452.827 336.571 452.68 336.571H444.848V336.791C444.878 337.48 445.032 338.125 445.31 338.727C445.604 339.313 446.007 339.79 446.52 340.157C447.034 340.509 447.635 340.685 448.324 340.685C449.131 340.685 449.784 340.531 450.282 340.223C450.796 339.9 451.162 339.577 451.382 339.255C451.514 339.079 451.61 338.969 451.668 338.925C451.742 338.881 451.866 338.859 452.042 338.859H452.394C452.526 338.859 452.636 338.895 452.724 338.969C452.812 339.042 452.856 339.137 452.856 339.255C452.856 339.563 452.658 339.937 452.262 340.377C451.881 340.802 451.346 341.176 450.656 341.499C449.967 341.807 449.19 341.961 448.324 341.961ZM451.844 335.339V335.251C451.844 334.121 451.522 333.19 450.876 332.457C450.246 331.723 449.395 331.357 448.324 331.357C447.254 331.357 446.403 331.723 445.772 332.457C445.156 333.19 444.848 334.121 444.848 335.251V335.339H451.844ZM460.224 341.961C458.64 341.961 457.467 341.447 456.704 340.421C455.956 339.379 455.56 338.118 455.516 336.637L455.494 336.021L455.516 335.405C455.56 333.923 455.956 332.669 456.704 331.643C457.467 330.601 458.64 330.081 460.224 330.081C461.823 330.081 463.055 330.66 463.92 331.819V326.605C463.92 326.458 463.964 326.341 464.052 326.253C464.14 326.165 464.257 326.121 464.404 326.121H464.778C464.925 326.121 465.042 326.165 465.13 326.253C465.218 326.341 465.262 326.458 465.262 326.605V341.257C465.262 341.403 465.218 341.521 465.13 341.609C465.042 341.697 464.925 341.741 464.778 341.741H464.404C464.257 341.741 464.14 341.697 464.052 341.609C463.964 341.521 463.92 341.403 463.92 341.257V340.223C463.069 341.381 461.837 341.961 460.224 341.961ZM460.356 340.685C461.515 340.685 462.387 340.303 462.974 339.541C463.561 338.763 463.876 337.854 463.92 336.813C463.935 336.666 463.942 336.38 463.942 335.955C463.942 335.529 463.935 335.243 463.92 335.097C463.905 334.466 463.766 333.872 463.502 333.315C463.238 332.743 462.842 332.273 462.314 331.907C461.786 331.54 461.133 331.357 460.356 331.357C459.168 331.357 458.295 331.738 457.738 332.501C457.195 333.249 456.902 334.217 456.858 335.405L456.836 336.021C456.836 337.385 457.1 338.507 457.628 339.387C458.156 340.252 459.065 340.685 460.356 340.685ZM469.158 341.741C469.011 341.741 468.894 341.697 468.806 341.609C468.718 341.521 468.674 341.403 468.674 341.257V340.201C468.674 340.054 468.718 339.937 468.806 339.849C468.894 339.746 469.011 339.695 469.158 339.695H470.214C470.361 339.695 470.478 339.746 470.566 339.849C470.669 339.937 470.72 340.054 470.72 340.201V341.257C470.72 341.403 470.669 341.521 470.566 341.609C470.478 341.697 470.361 341.741 470.214 341.741H469.158Z" fill="#363636"/>
<path opacity="0.1" d="M217.881 23.3767H196.737C195.87 23.3767 195.167 24.0787 195.167 24.9447V30.9072C195.167 31.7732 195.87 32.4752 196.737 32.4752H217.881C218.748 32.4752 219.451 31.7732 219.451 30.9072V24.9447C219.451 24.0787 218.748 23.3767 217.881 23.3767Z" fill="#2D86DA"/>
<path opacity="0.1" d="M290.123 15.188H268.979C268.112 15.188 267.41 15.89 267.41 16.756V22.7185C267.41 23.5844 268.112 24.2864 268.979 24.2864H290.123C290.99 24.2864 291.693 23.5844 291.693 22.7185V16.756C291.693 15.89 290.99 15.188 290.123 15.188Z" fill="#2D86DA"/>
<path opacity="0.1" d="M276.767 107.689H255.623C254.756 107.689 254.054 108.391 254.054 109.257V115.219C254.054 116.085 254.756 116.787 255.623 116.787H276.767C277.634 116.787 278.337 116.085 278.337 115.219V109.257C278.337 108.391 277.634 107.689 276.767 107.689Z" fill="#2D86DA"/>
<path opacity="0.1" d="M287.695 117.697H266.551C265.684 117.697 264.981 118.399 264.981 119.265V125.228C264.981 126.094 265.684 126.796 266.551 126.796H287.695C288.562 126.796 289.264 126.094 289.264 125.228V119.265C289.264 118.399 288.562 117.697 287.695 117.697Z" fill="#2D86DA"/>
<path opacity="0.1" d="M352.652 113.148H331.508C330.641 113.148 329.938 113.85 329.938 114.716V120.678C329.938 121.544 330.641 122.246 331.508 122.246H352.652C353.519 122.246 354.222 121.544 354.222 120.678V114.716C354.222 113.85 353.519 113.148 352.652 113.148Z" fill="#2D86DA"/>
<path opacity="0.1" d="M155.049 120.427H133.904C133.038 120.427 132.335 121.129 132.335 121.995V127.957C132.335 128.823 133.038 129.525 133.904 129.525H155.049C155.915 129.525 156.618 128.823 156.618 127.957V121.995C156.618 121.129 155.915 120.427 155.049 120.427Z" fill="#2D86DA"/>
<path opacity="0.1" d="M269.179 127.706H248.035C247.168 127.706 246.465 128.408 246.465 129.274V135.236C246.465 136.102 247.168 136.804 248.035 136.804H269.179C270.046 136.804 270.748 136.102 270.748 135.236V129.274C270.748 128.408 270.046 127.706 269.179 127.706Z" fill="#2D86DA"/>
<path d="M313.217 55.2849L302.089 23.0097L298.089 23.6163L294.507 24.0742C294.598 22.8611 294.756 18.506 292.534 16.2223C292.318 15.4398 291.751 14.5512 290.658 13.5504C285.334 8.67358 284.226 18.6485 284.226 18.6485C284.226 18.6485 283.012 20.7533 281.339 23.6951L280.462 23.5283L280.213 25.6998C276.51 32.2416 271.59 41.0944 271.59 41.9254C271.59 43.2568 270.925 45.0279 270.925 45.0279C270.925 45.0279 267.155 51.2331 265.822 54.3387C265.047 56.1708 263.911 57.8291 262.483 59.2154C262.483 59.2154 262.162 59.4611 261.634 59.822C261.667 59.235 261.769 58.6538 261.937 58.0903C262.423 56.5041 263.552 55.1454 263.852 53.5137C263.923 53.1226 263.949 52.7249 263.931 52.3279C264.001 50.4142 263.069 48.5308 262.681 46.6171C262.228 44.4001 262.471 41.9587 261.288 40.0329C260.377 38.562 258.762 37.6461 257.084 37.2245C255.542 36.8393 254.024 36.9758 252.47 36.812C251.043 36.6604 249.68 36.0296 248.254 35.796C247.492 35.6305 246.703 35.6305 245.941 35.796C243.528 36.4602 242.772 39.4991 240.908 41.1702C240.237 41.7768 239.415 42.1953 238.808 42.8595C237.924 43.8269 237.618 45.1765 237.663 46.4989C237.651 46.9421 237.678 47.3855 237.742 47.8242C237.973 49.4104 238.586 50.9116 238.956 52.4674C239.236 53.6189 239.388 54.7977 239.409 55.9825C239.409 56.2494 239.409 56.5162 239.384 56.7801C239.395 57.3143 239.253 57.8405 238.974 58.2965C238.638 58.7605 238.082 58.985 237.587 59.2822C235.97 57.9997 234.756 56.2794 234.091 54.3265C234.091 54.3265 234.009 54.4297 233.869 54.6298V54.3265C233.869 54.3265 230.834 49.8744 230.372 46.238L231.428 46.3472L233.857 12.2129L227.656 11.303C227.482 9.54097 227.012 6.98431 225.764 5.11913C226.806 3.06895 227.331 0.29392 222.766 0.017934C217.423 -0.306577 217.751 3.85141 218.319 6.12602C218.061 7.36722 217.959 8.63555 218.015 9.90188L212.551 9.10728L212.521 9.55007H211.222L207.246 44.3728L210.633 44.203L223.048 45.495C224.04 54.5115 225.601 65.6541 227.452 68.2805C227.514 68.3692 227.582 68.4533 227.656 68.5322V84.4879C227.656 84.4879 227.434 105.111 223.661 108.426C225.976 107.603 228.424 107.219 230.879 107.295C230.837 107.431 230.794 107.577 230.752 107.731C230.199 109.767 229.815 111.844 229.601 113.943C229.549 114.406 229.501 114.889 229.459 115.392C229.111 120.012 229.175 124.653 229.65 129.261C231.204 145.663 233.644 157.412 233.644 157.412L234.324 166.947C234.324 166.947 233.66 183.127 235.432 188.447C236.1 189.062 236.868 189.559 237.703 189.918C237.718 190.069 237.736 190.221 237.751 190.382C237.766 190.542 237.791 190.791 237.812 191.003C237.017 191.364 235.532 192.796 235.211 198.419C235.211 198.419 235.654 202.631 234.546 204.624C233.438 206.616 234.103 212.382 237.429 213.046C239.556 213.437 241.735 213.437 243.861 213.046C243.861 213.046 245.416 213.046 244.305 207.505L244.11 206.086C244.086 203.341 244.201 200.402 244.748 199.526C245.856 197.751 244.305 195.98 244.305 195.98C244.305 195.98 244.195 196.041 244.016 196.123C243.731 194.591 243.358 192.104 243.491 190.206C243.491 190.045 243.518 189.902 243.537 189.736C244.214 189.382 244.845 188.947 245.416 188.441V167.39C245.416 167.39 245.194 135.03 247.634 134.363C247.634 134.363 248.742 146.109 248.299 151.874C247.856 157.639 248.964 163.844 248.964 163.844L249.407 187.34C249.407 187.34 249.832 187.543 250.518 187.783L250.472 188.21C250.202 190.821 249.768 194.764 249.374 197.178C249.107 197.284 248.87 197.452 248.683 197.668C248.495 197.885 248.363 198.143 248.296 198.422C247.631 200.639 248.075 206.18 246.742 207.732C245.956 208.642 245.015 210.495 245.476 211.805C245.188 212.955 245.315 214.75 248.739 215.048C253.842 215.49 256.061 212.831 256.061 212.831C256.061 212.831 256.725 211.724 256.061 209.728C255.396 207.732 256.282 204.187 256.282 204.187C256.282 204.187 256.759 201.178 255.979 200.784C255.912 200.426 255.851 200.199 255.851 200.199C255.862 199.517 255.611 198.858 255.15 198.355C255.132 196.035 255.226 191.743 256.042 188.917C256.091 188.756 256.14 188.614 256.191 188.447C256.849 188.333 257.483 188.111 258.067 187.789C258.067 187.789 257.845 182.69 259.4 179.145C260.954 175.6 260.064 161.412 260.064 161.412C260.064 161.412 259.4 157.685 260.337 154.664C261.412 151.317 262.218 147.889 262.748 144.413L264.056 135.257C264.056 135.257 267.501 124.112 262.963 112.672C262.778 112.199 262.575 111.726 262.356 111.252C261.98 110.431 261.561 109.606 261.093 108.787C261.02 108.659 260.942 108.529 260.866 108.402C261.342 108.283 261.612 108.214 261.612 108.214C261.612 108.214 255.624 94.2626 259.393 87.1568C259.393 87.1568 261.518 85.0338 261.822 82.7016C262.198 79.6172 262.608 76.5358 263.282 73.503L263.4 72.9693C263.4 72.9693 263.418 72.8661 263.449 72.6811C263.534 72.6265 263.616 72.5689 263.698 72.5083C270.09 67.8438 275.602 48.3671 275.602 48.3671L277.378 45.031L278.222 43.2477L276.492 58.3299L290.023 61.666L298.674 61.0018L298.65 59.1427L305.243 58.6301L313.217 55.2849ZM227.437 11.3091L225.033 10.9573C224.611 8.78883 224.326 7.36644 224.326 7.36644C224.83 6.74408 225.276 6.07714 225.658 5.37388C226.821 7.15111 227.267 9.57736 227.437 11.297V11.3091ZM218.458 6.65373C218.625 7.2239 218.777 7.59087 218.777 7.59087L219.081 10.0929L218.261 9.97466C218.214 8.85973 218.281 7.74294 218.461 6.6416L218.458 6.65373ZM294.282 24.1258L291.028 24.5443C291.487 23.1977 292.054 20.9898 291.723 18.9912C292.042 18.6999 292.288 18.3387 292.443 17.9361C292.598 17.5335 292.657 17.1005 292.616 16.6711C294.549 18.9791 294.367 23.0552 294.282 24.1167V24.1258ZM288.879 20.6653C289.849 20.3414 290.748 19.836 291.529 19.1762C291.808 21.1385 291.226 23.2948 290.782 24.5746L287.747 24.9628L286.909 24.8021L288.879 20.6653Z" fill="url(#paint0_linear)"/>
<path d="M312.637 55.8582L304.717 59.1609L295.517 27.1071L297.675 24.5474L301.63 23.9348L312.637 55.8582Z" fill="#2D86DA"/>
<path opacity="0.2" d="M312.637 55.8582L304.717 59.1609L295.517 27.1071L297.675 24.5474L301.63 23.9348L312.637 55.8582Z" fill="white"/>
<path d="M297.675 24.5471L283.931 26.3092L290.976 60.2282L304.717 59.1606L297.675 24.5471Z" fill="#2D86DA"/>
<path opacity="0.07" d="M297.675 24.5471L283.931 26.3092L290.976 60.2282L304.717 59.1606L297.675 24.5471Z" fill="white"/>
<path d="M294.103 25.3115L293.885 25.2842C293.885 25.2023 294.795 17.1957 289.766 16.1858L289.808 15.9705C295.053 17.0228 294.121 25.2296 294.103 25.3115Z" fill="#535461"/>
<path d="M258.401 48.6826H243.26V70.8252H258.401V48.6826Z" fill="#774E55"/>
<path opacity="0.2" d="M258.401 48.6826H243.26V70.8252H258.401V48.6826Z" fill="black"/>
<path d="M298.222 61.5053L289.665 62.1634L290.982 28.8418L293.833 27.0889L297.782 27.747L298.222 61.5053Z" fill="#2D86DA"/>
<path opacity="0.2" d="M298.222 61.5053L289.665 62.1634L290.982 28.8418L293.833 27.0889L297.782 27.747L298.222 61.5053Z" fill="black"/>
<path d="M293.833 27.0888L280.231 24.4563L276.282 58.8757L289.665 62.1633L293.833 27.0888Z" fill="#2D86DA"/>
<path d="M213.75 10.6479H211.774L207.825 45.0643L216.6 44.6276L213.75 10.6479Z" fill="#2D86DA"/>
<path opacity="0.2" d="M213.75 10.6479H211.774L207.825 45.0643L216.6 44.6276L213.75 10.6479Z" fill="black"/>
<path d="M213.091 10.2083L210.678 44.846L231.741 47.0388L234.154 13.2775L213.091 10.2083Z" fill="#2D86DA"/>
<path d="M238.543 189.972C238.543 189.972 235.912 189.754 235.472 197.427C235.472 197.427 235.912 201.591 234.813 203.565C233.714 205.54 234.373 211.238 237.666 211.897C239.773 212.285 241.933 212.285 244.04 211.897C244.04 211.897 245.576 211.897 244.481 206.416L242.286 190.412L238.543 189.972Z" fill="#5C3D53"/>
<path opacity="0.05" d="M238.543 189.972C238.543 189.972 235.912 189.754 235.472 197.427C235.472 197.427 235.912 201.591 234.813 203.565C233.714 205.54 234.373 211.238 237.666 211.897C239.773 212.285 241.933 212.285 244.04 211.897C244.04 211.897 245.576 211.897 244.481 206.416L242.286 190.412L238.543 189.972Z" fill="black"/>
<path d="M252.339 63.3795C252.151 66.6428 252.803 68.5353 252.803 68.5353L247.1 70.0699C247.1 70.0699 237.666 71.3861 241.396 67.6437C242.686 66.3547 243.321 64.1438 243.597 61.8085C243.77 60.2134 243.824 58.6076 243.758 57.0046C243.707 55.5026 243.578 54.0043 243.369 52.516C243.369 52.516 257.192 47.6938 254.121 55.5852C253.561 57.0126 253.119 58.4833 252.8 59.9828C252.563 61.1021 252.409 62.2374 252.339 63.3795Z" fill="#F8BDC5"/>
<path opacity="0.1" d="M254.121 55.5881C253.561 57.0155 253.12 58.4863 252.801 59.9857C251.164 60.3331 249.465 60.2404 247.877 59.7172C246.288 59.194 244.867 58.2589 243.758 57.0075C243.708 55.5055 243.578 54.0073 243.37 52.5189C243.37 52.5189 257.193 47.6967 254.121 55.5881Z" fill="black"/>
<path d="M250.83 59.7524C256.041 59.7524 260.264 55.5322 260.264 50.3264C260.264 45.1206 256.041 40.9004 250.83 40.9004C245.62 40.9004 241.396 45.1206 241.396 50.3264C241.396 55.5322 245.62 59.7524 250.83 59.7524Z" fill="#F8BDC5"/>
<path d="M234.154 54.9303V57.7811L229.328 70.2763L228.01 68.9601C227.938 68.8821 227.871 68.799 227.81 68.7114C224.623 64.1864 222.304 34.1039 222.304 34.1039L219.235 8.66772C219.235 8.66772 215.945 0.782405 223.181 1.21306C230.417 1.64372 224.717 8.44633 224.717 8.44633C224.717 8.44633 229.543 32.5602 228.885 33.4367C228.226 34.3132 228.885 36.9457 228.885 36.9457C228.885 36.9457 230.861 41.9893 230.639 45.7136C230.417 49.4379 234.154 54.9303 234.154 54.9303Z" fill="#F8BDC5"/>
<path d="M288.566 21.6087L277.156 45.7227L275.402 49.0042C275.402 49.0042 269.938 68.2686 263.628 72.8815C263.265 73.1521 262.872 73.3791 262.456 73.5578L261.139 63.034L262.353 59.9769L262.444 59.7434C263.852 58.3714 264.97 56.7318 265.734 54.9212C267.052 51.852 270.782 45.7136 270.782 45.7136C270.782 45.7136 271.441 43.9606 271.441 42.6444C271.441 41.3281 283.947 19.6253 283.947 19.6253C283.947 19.6253 285.042 9.75954 290.321 14.5817C295.599 19.4039 288.566 21.6087 288.566 21.6087Z" fill="#F8BDC5"/>
<path d="M244.465 196.547C244.465 196.547 237.004 199.617 237.881 196.766C238.415 195.037 238.218 191.771 237.981 189.487C237.83 187.998 237.66 186.912 237.66 186.912L244.034 187.57C243.811 188.126 243.687 188.716 243.667 189.314C243.457 192.223 244.465 196.547 244.465 196.547Z" fill="#F8BDC5"/>
<path d="M256.066 188.019C254.916 192.01 255.216 198.962 255.216 198.962C255.216 198.962 248.414 199.838 249.073 198.085C249.531 196.872 250.202 190.861 250.566 187.328C250.727 185.784 250.827 184.713 250.827 184.713L256.971 186.03C256.553 186.633 256.246 187.307 256.066 188.019Z" fill="#F8BDC5"/>
<path opacity="0.1" d="M237.663 186.903L244.037 187.561C243.815 188.117 243.69 188.707 243.67 189.305C242.799 189.761 241.835 190.013 240.852 190.043C239.869 190.073 238.892 189.88 237.994 189.478C237.833 187.986 237.663 186.903 237.663 186.903Z" fill="black"/>
<path opacity="0.1" d="M256.974 186.027C256.553 186.631 256.245 187.306 256.063 188.019C253.99 188.353 251.814 187.767 250.566 187.328C250.727 185.784 250.827 184.713 250.827 184.713L256.974 186.027Z" fill="black"/>
<path d="M263.995 134.945L262.702 144.001C262.177 147.438 261.379 150.829 260.316 154.14C259.387 157.127 260.046 160.812 260.046 160.812C260.046 160.812 260.923 174.842 259.387 178.351C257.851 181.86 258.07 186.9 258.07 186.9C254.558 188.875 249.513 186.46 249.513 186.46L249.073 163.223C249.073 163.223 247.977 157.085 248.414 151.395C248.851 145.705 247.756 134.078 247.756 134.078C245.327 134.736 245.561 166.741 245.561 166.741V187.567C240.295 192.171 235.687 187.567 235.687 187.567C233.932 182.305 234.591 166.301 234.591 166.301L233.932 156.875C233.932 156.875 231.504 145.257 229.986 129.034C229.517 124.476 229.454 119.886 229.798 115.317C229.841 114.819 229.887 114.341 229.938 113.882C230.148 111.807 230.528 109.753 231.073 107.741C231.247 107.077 231.47 106.427 231.741 105.797L255.317 106.891L256.707 106.955L260.046 107.11C260.41 107.659 260.753 108.217 261.072 108.775C261.533 109.585 261.949 110.4 262.319 111.201C262.532 111.668 262.732 112.138 262.926 112.605C267.41 123.915 263.995 134.945 263.995 134.945Z" fill="#5E52AD"/>
<path opacity="0.1" d="M238.103 107.983C238.103 107.983 237.071 118.295 229.795 115.31C229.838 114.813 229.884 114.335 229.935 113.876C231.647 114.34 236.385 114.98 236.564 107.98L238.103 107.983Z" fill="black"/>
<path opacity="0.1" d="M262.915 112.608C257.876 114.407 255.976 109.618 255.326 106.885L256.716 106.949C257.472 111.246 260.489 111.498 262.326 111.195C262.532 111.674 262.729 112.144 262.915 112.608Z" fill="black"/>
<path d="M240.498 195.383C239.378 195.207 237.666 194.591 238.204 192.441C238.204 192.441 236.13 191.725 236.349 200.275C236.349 200.275 236.13 204.439 235.69 205.318C235.25 206.198 235.69 211.457 240.298 211.017C240.298 211.017 243.588 212.112 244.465 210.359C244.465 210.359 243.807 200.275 244.906 198.531C246.004 196.787 244.465 195.022 244.465 195.022C244.465 195.022 242.911 195.883 241.794 195.628C241.369 195.51 240.932 195.453 240.498 195.383Z" fill="#5C3D53"/>
<path d="M246.001 209.701C246.001 209.701 243.807 213.428 248.854 213.865C253.902 214.301 256.094 211.672 256.094 211.672C256.094 211.672 256.752 210.577 256.094 208.603C255.435 206.628 256.312 203.122 256.312 203.122C256.312 203.122 256.971 198.958 255.435 199.835C253.899 200.711 246.001 209.701 246.001 209.701Z" fill="#5C3D53"/>
<path opacity="0.05" d="M246.001 209.701C246.001 209.701 243.807 213.428 248.854 213.865C253.902 214.301 256.094 211.672 256.094 211.672C256.094 211.672 256.752 210.577 256.094 208.603C255.435 206.628 256.312 203.122 256.312 203.122C256.312 203.122 256.971 198.958 255.435 199.835C253.899 200.711 246.001 209.701 246.001 209.701Z" fill="black"/>
<path d="M251.708 196.329C251.708 196.329 249.076 195.234 248.417 197.424C247.758 199.613 248.199 205.097 246.881 206.631C245.564 208.166 243.809 212.33 249.076 212.112C254.342 211.893 255.45 210.137 255.45 210.137C255.45 210.137 255.232 204.657 255.89 203.122C256.549 201.588 255.89 199.18 255.89 199.18C255.89 199.18 256.094 196.095 251.708 196.329Z" fill="#5C3D53"/>
<path opacity="0.2" d="M218.795 13.7172C219.038 13.7172 219.235 13.5203 219.235 13.2774C219.235 13.0345 219.038 12.8376 218.795 12.8376C218.552 12.8376 218.355 13.0345 218.355 13.2774C218.355 13.5203 218.552 13.7172 218.795 13.7172Z" fill="black"/>
<path opacity="0.2" d="M228.01 14.8121C228.254 14.8121 228.451 14.6152 228.451 14.3724C228.451 14.1295 228.254 13.9326 228.01 13.9326C227.767 13.9326 227.57 14.1295 227.57 14.3724C227.57 14.6152 227.767 14.8121 228.01 14.8121Z" fill="black"/>
<path d="M228.12 14.3751H227.901C227.901 14.2811 228.056 5.03407 222.741 4.18185C221.694 4.01504 220.838 4.2516 220.198 4.88546C218.003 7.05999 218.911 13.2014 218.92 13.2621L218.704 13.2955C218.665 13.0377 217.772 6.98114 220.046 4.73079C220.738 4.04234 221.661 3.78455 222.778 3.96349C228.278 4.843 228.123 14.2811 228.12 14.3751Z" fill="#535461"/>
<path d="M290.202 26.6976L290.005 26.6036C290.038 26.5308 293.42 19.2126 288.952 16.662L289.061 16.4709C293.702 19.1216 290.239 26.6218 290.202 26.6976Z" fill="#535461"/>
<path opacity="0.1" d="M252.803 68.5232L247.1 70.0578C247.1 70.0578 237.666 71.374 241.396 67.6315C242.686 66.3426 243.321 64.1317 243.597 61.7964C245.087 64.1317 246.881 63.4675 246.881 63.4675L252.321 63.3613H252.342C252.151 66.6428 252.803 68.5232 252.803 68.5232Z" fill="black"/>
<path opacity="0.1" d="M263.631 72.8874C263.268 73.158 262.875 73.385 262.459 73.5637L261.142 63.0399L262.356 59.9828L262.659 59.7493C265.4 60.5287 263.986 70.6098 263.631 72.8874Z" fill="black"/>
<path opacity="0.1" d="M234.154 54.9299V57.7808L229.328 70.276L228.01 68.9597C227.938 68.8818 227.871 68.7986 227.81 68.711C228.381 62.1966 234.154 54.9299 234.154 54.9299Z" fill="black"/>
<path opacity="0.1" d="M261.069 108.769C258 109.536 241.979 113.297 237.226 109.736C235.35 108.332 233.14 107.816 231.073 107.735C231.247 107.071 231.47 106.421 231.741 105.791L255.317 106.885L256.707 106.949L260.046 107.104C260.41 107.656 260.75 108.211 261.069 108.769Z" fill="black"/>
<path d="M219.784 3.08398C219.784 3.08398 223.075 8.56428 225.269 3.08398H219.784Z" fill="#F8BDC5"/>
<path d="M287.471 14.3723C287.471 14.3723 286.153 20.9505 291.417 17.8813L287.471 14.3723Z" fill="#F8BDC5"/>
<g opacity="0.1">
<path opacity="0.1" d="M246.736 136.24C246.629 134.905 246.55 134.071 246.55 134.071C244.122 134.729 244.356 166.735 244.356 166.735V187.561C242.814 188.908 241.32 189.466 240 189.584C241.584 189.723 243.472 189.281 245.464 187.561V166.735C245.464 166.735 245.294 143.543 246.736 136.24Z" fill="black"/>
<path opacity="0.1" d="M262.805 112.608C262.62 112.141 262.422 111.671 262.198 111.204C261.827 110.391 261.412 109.575 260.95 108.778C260.647 108.22 260.289 107.665 259.924 107.113L256.585 106.958L255.195 106.894L231.619 105.8L231.598 105.848L254.099 106.894L255.49 106.958L258.829 107.113C259.193 107.662 259.536 108.22 259.854 108.778C260.316 109.588 260.732 110.403 261.102 111.204C261.315 111.671 261.515 112.141 261.709 112.608C266.195 123.921 262.79 134.945 262.79 134.945L261.497 144.001C260.972 147.438 260.174 150.829 259.111 154.14C258.182 157.127 258.841 160.812 258.841 160.812C258.841 160.812 259.718 174.842 258.182 178.351C256.646 181.86 256.865 186.9 256.865 186.9C256.017 187.357 255.077 187.616 254.115 187.658C255.443 187.778 256.777 187.515 257.96 186.9C257.96 186.9 257.742 181.856 259.278 178.351C260.814 174.845 259.936 160.812 259.936 160.812C259.936 160.812 259.278 157.124 260.207 154.14C261.27 150.829 262.068 147.438 262.592 144.001L263.885 134.945C263.885 134.945 267.291 123.915 262.805 112.608Z" fill="black"/>
</g>
<path d="M252.321 63.81C255.356 65.2384 262.459 59.7521 262.459 59.7521C265.531 60.6286 263.336 73.3452 263.336 73.3452L263.218 73.8729C262.55 76.8723 262.146 79.9203 261.773 82.9713C261.491 85.2732 259.387 87.378 259.387 87.378C255.657 94.3929 261.582 108.204 261.582 108.204C261.582 108.204 242.492 113.248 237.229 109.299C231.966 105.35 224.064 108.423 224.064 108.423C227.795 105.135 228.01 84.7455 228.01 84.7455V68.9749C228.451 62.3967 234.385 54.9451 234.385 54.9451C236.813 61.7416 243.561 62.1905 243.561 62.1905C245.057 64.6167 246.9 63.9343 246.9 63.9343L252.321 63.81Z" fill="#EB6475"/>
<path opacity="0.1" d="M248.375 37.0423C247.622 36.8788 246.842 36.8788 246.089 37.0423C243.703 37.7004 242.954 40.706 241.111 42.3558C240.45 42.9624 239.633 43.3688 239.032 44.0269C237.964 45.1976 237.748 46.9323 237.976 48.5003C238.203 50.0683 238.81 51.5543 239.19 53.092C239.565 54.6312 239.707 56.2177 239.612 57.7989C239.62 58.3238 239.479 58.8402 239.205 59.288C238.765 59.8946 237.954 60.0856 237.384 60.5709C235.641 62.0691 237.08 65.1777 235.802 67.0914C235.253 67.9194 234.224 68.4653 234.015 69.4358C233.866 70.1243 234.181 70.8188 234.491 71.4526C235.305 73.1207 236.148 74.8342 237.526 76.0777C238.904 77.3211 240.607 77.9459 242.301 78.5797C242.814 78.7708 243.458 78.9376 243.849 78.5585C244.332 78.0854 243.968 77.2847 243.634 76.6994C243.105 75.7896 242.693 74.6917 243.002 73.6666C243.312 72.6415 244.304 71.9621 244.972 71.1069C246.693 68.8929 246.129 65.7145 245.276 63.0457C244.915 61.9205 244.508 60.7225 244.814 59.5792C244.945 59.0878 245.203 58.642 245.367 58.1598C246.095 56.0126 244.872 53.6561 245.23 51.4179C245.416 50.5438 245.723 49.6998 246.141 48.9097L248.068 44.7699C248.262 44.2717 248.552 43.8163 248.921 43.4294C249.52 42.9482 250.28 42.7119 251.046 42.7683C251.827 42.7857 252.597 42.9617 253.308 43.2854C254.019 43.6092 254.657 44.074 255.183 44.6516C257.247 46.9445 257.117 50.414 256.868 53.4711L256.689 55.679C256.558 57.2682 256.385 58.9635 255.384 60.2009C254.603 61.1593 253.344 61.8113 253.022 63.0062C252.743 64.0344 253.268 65.1504 252.992 66.1786C252.579 67.7162 250.679 68.2712 249.674 69.5147C249.251 70.0551 249.002 70.7102 248.957 71.3946C248.913 72.0789 249.076 72.7608 249.425 73.3512C249.808 73.9577 250.418 74.5643 250.336 75.277C250.266 75.8502 249.75 76.3142 249.753 76.8905C249.778 77.1483 249.88 77.3926 250.046 77.5913C250.213 77.7899 250.435 77.9337 250.685 78.0035C251.187 78.1335 251.711 78.1583 252.224 78.0763L257.666 77.585C258.007 77.5837 258.341 77.4915 258.634 77.3181C259.014 77.0451 259.138 76.5417 259.19 76.0777C259.408 74.1427 258.886 72.0289 259.855 70.3365C260.158 69.7937 260.604 69.3418 260.941 68.8201C262.799 65.9086 260.926 61.9599 261.937 58.6572C262.417 57.0892 263.534 55.7426 263.831 54.1322C264.226 51.985 263.106 49.8863 262.672 47.7633C262.225 45.5706 262.465 43.1565 261.293 41.2488C260.398 39.7931 258.795 38.8863 257.138 38.4708C255.62 38.0886 254.103 38.2251 252.585 38.0613C251.134 37.8945 249.786 37.2698 248.375 37.0423Z" fill="black"/>
<path d="M248.375 36.6029C247.622 36.4393 246.842 36.4393 246.089 36.6029C243.703 37.261 242.954 40.2665 241.111 41.9164C240.45 42.5229 239.633 42.9293 239.032 43.5874C237.964 44.7581 237.748 46.4929 237.976 48.0608C238.203 49.6288 238.81 51.1149 239.19 52.6525C239.565 54.1917 239.707 55.7782 239.612 57.3594C239.62 57.8843 239.479 58.4007 239.205 58.8486C238.765 59.4551 237.954 59.6462 237.384 60.1314C235.641 61.6297 237.08 64.7383 235.802 66.652C235.253 67.4799 234.224 68.0259 234.015 68.9964C233.866 69.6848 234.181 70.3793 234.491 71.0132C235.305 72.6812 236.148 74.3948 237.526 75.6382C238.904 76.8817 240.607 77.5064 242.301 78.1403C242.814 78.3314 243.458 78.4982 243.849 78.1191C244.332 77.6459 243.968 76.8453 243.634 76.2599C243.105 75.3501 242.693 74.2522 243.002 73.2271C243.312 72.202 244.304 71.5227 244.972 70.6674C246.693 68.4535 246.129 65.2751 245.276 62.6062C244.915 61.481 244.508 60.2831 244.814 59.1397C244.945 58.6484 245.203 58.2026 245.367 57.7203C246.095 55.5731 244.872 53.2166 245.23 50.9784C245.416 50.1044 245.723 49.2603 246.141 48.4703L248.068 44.3305C248.262 43.8323 248.552 43.3768 248.921 42.99C249.52 42.5088 250.28 42.2725 251.046 42.3288C251.827 42.3463 252.597 42.5222 253.308 42.846C254.019 43.1697 254.657 43.6346 255.183 44.2122C257.247 46.505 257.117 49.9745 256.868 53.0316L256.689 55.2395C256.558 56.8287 256.385 58.524 255.384 59.7614C254.603 60.7198 253.344 61.3719 253.022 62.5668C252.743 63.5949 253.268 64.711 252.992 65.7391C252.579 67.2767 250.679 67.8318 249.674 69.0752C249.251 69.6156 249.002 70.2707 248.957 70.9551C248.913 71.6395 249.076 72.3213 249.425 72.9117C249.808 73.5183 250.418 74.1248 250.336 74.8376C250.266 75.4108 249.75 75.8748 249.753 76.451C249.778 76.7088 249.88 76.9532 250.046 77.1518C250.213 77.3505 250.435 77.4942 250.685 77.5641C251.187 77.6941 251.711 77.7189 252.224 77.6368L257.666 77.1455C258.007 77.1442 258.341 77.0521 258.634 76.8786C259.014 76.6057 259.138 76.1022 259.19 75.6382C259.408 73.7033 258.886 71.5894 259.855 69.8971C260.158 69.3542 260.604 68.9023 260.941 68.3807C262.799 65.4692 260.926 61.5205 261.937 58.2177C262.417 56.6498 263.534 55.3032 263.831 53.6928C264.226 51.5455 263.106 49.4468 262.672 47.3239C262.225 45.1311 262.465 42.717 261.293 40.8094C260.398 39.3536 258.795 38.4468 257.138 38.0313C255.62 37.6492 254.103 37.7857 252.585 37.6219C251.134 37.4581 249.786 36.8334 248.375 36.6029Z" fill="#774E55"/>
<path opacity="0.1" d="M236.676 86.8261C236.676 86.8261 241.065 88.1424 247.428 85.2915H250.715C250.715 85.2915 250.933 88.3607 259.49 87.0445" fill="black"/>
<path opacity="0.1" d="M258 224.149C348.022 224.149 421 217.496 421 209.288C421 201.081 348.022 194.427 258 194.427C167.978 194.427 95 201.081 95 209.288C95 217.496 167.978 224.149 258 224.149Z" fill="#2D86DA"/>
<path opacity="0.1" d="M194.205 78.2705H173.061C172.194 78.2705 171.492 78.9725 171.492 79.8385V85.801C171.492 86.6669 172.194 87.369 173.061 87.369H194.205C195.072 87.369 195.775 86.6669 195.775 85.801V79.8385C195.775 78.9725 195.072 78.2705 194.205 78.2705Z" fill="#2D86DA"/>
<path opacity="0.1" d="M205.133 88.2791H183.988C183.122 88.2791 182.419 88.9811 182.419 89.847V95.8095C182.419 96.6755 183.122 97.3775 183.988 97.3775H205.133C205.999 97.3775 206.702 96.6755 206.702 95.8095V89.847C206.702 88.9811 205.999 88.2791 205.133 88.2791Z" fill="#2D86DA"/>
<path opacity="0.1" d="M300.747 78.8772H279.603C278.736 78.8772 278.034 79.5792 278.034 80.4452V86.4077C278.034 87.2736 278.736 87.9756 279.603 87.9756H300.747C301.614 87.9756 302.317 87.2736 302.317 86.4077V80.4452C302.317 79.5792 301.614 78.8772 300.747 78.8772Z" fill="#2D86DA"/>
<path opacity="0.1" d="M311.675 88.8855H290.53C289.664 88.8855 288.961 89.5875 288.961 90.4535V96.416C288.961 97.2819 289.664 97.9839 290.53 97.9839H311.675C312.541 97.9839 313.244 97.2819 313.244 96.416V90.4535C313.244 89.5875 312.541 88.8855 311.675 88.8855Z" fill="#2D86DA"/>
<path opacity="0.1" d="M186.617 98.2871H165.473C164.606 98.2871 163.903 98.9891 163.903 99.8551V105.818C163.903 106.684 164.606 107.386 165.473 107.386H186.617C187.484 107.386 188.186 106.684 188.186 105.818V99.8551C188.186 98.9891 187.484 98.2871 186.617 98.2871Z" fill="#2D86DA"/>
<path opacity="0.1" d="M210.9 133.771H189.756C188.889 133.771 188.187 134.473 188.187 135.339V141.301C188.187 142.167 188.889 142.869 189.756 142.869H210.9C211.767 142.869 212.47 142.167 212.47 141.301V135.339C212.47 134.473 211.767 133.771 210.9 133.771Z" fill="#2D86DA"/>
<path opacity="0.1" d="M221.827 143.78H200.683C199.816 143.78 199.113 144.482 199.113 145.348V151.31C199.113 152.176 199.816 152.878 200.683 152.878H221.827C222.694 152.878 223.396 152.176 223.396 151.31V145.348C223.396 144.482 222.694 143.78 221.827 143.78Z" fill="#2D86DA"/>
<path opacity="0.1" d="M203.311 153.788H182.167C181.3 153.788 180.598 154.49 180.598 155.356V161.318C180.598 162.184 181.3 162.886 182.167 162.886H203.311C204.178 162.886 204.881 162.184 204.881 161.318V155.356C204.881 154.49 204.178 153.788 203.311 153.788Z" fill="#2D86DA"/>
<path opacity="0.1" d="M308.64 159.247H287.495C286.628 159.247 285.926 159.949 285.926 160.815V166.777C285.926 167.643 286.628 168.345 287.495 168.345H308.64C309.506 168.345 310.209 167.643 310.209 166.777V160.815C310.209 159.949 309.506 159.247 308.64 159.247Z" fill="#2D86DA"/>
<path opacity="0.1" d="M290.123 169.255H268.979C268.112 169.255 267.41 169.957 267.41 170.823V176.786C267.41 177.652 268.112 178.354 268.979 178.354H290.123C290.99 178.354 291.693 177.652 291.693 176.786V170.823C291.693 169.957 290.99 169.255 290.123 169.255Z" fill="#2D86DA"/>
<g opacity="0.1">
<path opacity="0.1" d="M381.922 201.218C381.922 201.218 377.527 178.969 386.578 163.72C390.415 157.349 392.08 149.906 391.322 142.509C390.932 139 390.221 135.534 389.198 132.155" stroke="#535461" stroke-width="2" stroke-miterlimit="10"/>
<path opacity="0.1" d="M394.849 122.51C394.606 125.164 389.082 132.421 389.082 132.421C389.082 132.421 384.978 124.281 385.224 121.625C385.365 120.369 385.994 119.219 386.974 118.421C387.954 117.623 389.209 117.241 390.468 117.357C391.727 117.472 392.891 118.076 393.709 119.039C394.528 120.002 394.936 121.247 394.846 122.507L394.849 122.51Z" fill="#2D86DA"/>
<path opacity="0.1" d="M401.451 137.947C399.803 140.043 391.222 143.14 391.222 143.14C391.222 143.14 392.206 134.078 393.854 131.982C394.235 131.453 394.719 131.007 395.277 130.669C395.835 130.332 396.455 130.112 397.101 130.021C397.747 129.929 398.404 129.97 399.034 130.139C399.663 130.309 400.252 130.604 400.765 131.007C401.277 131.41 401.703 131.912 402.016 132.484C402.329 133.055 402.523 133.684 402.586 134.333C402.649 134.981 402.581 135.636 402.384 136.257C402.188 136.878 401.867 137.453 401.442 137.947H401.451Z" fill="#2D86DA"/>
<path opacity="0.1" d="M398.792 163.038C396.309 164.014 387.34 162.358 387.34 162.358C387.34 162.358 392.767 155.031 395.25 154.055C396.437 153.609 397.753 153.647 398.912 154.161C400.071 154.676 400.981 155.625 401.446 156.804C401.911 157.983 401.894 159.298 401.397 160.464C400.901 161.63 399.965 162.555 398.792 163.038Z" fill="#2D86DA"/>
<path opacity="0.1" d="M392.5 181.583C390.218 182.966 381.096 182.848 381.096 182.848C381.096 182.848 385.206 174.711 387.489 173.328C388.031 172.987 388.637 172.757 389.269 172.651C389.902 172.546 390.549 172.568 391.173 172.715C391.798 172.862 392.386 173.132 392.905 173.509C393.423 173.886 393.862 174.362 394.194 174.91C394.527 175.458 394.747 176.067 394.842 176.7C394.937 177.334 394.904 177.98 394.747 178.601C394.589 179.223 394.309 179.806 393.923 180.318C393.538 180.83 393.054 181.26 392.5 181.583Z" fill="#2D86DA"/>
<path opacity="0.1" d="M381.072 142.718C382.808 144.744 391.511 147.473 391.511 147.473C391.511 147.473 390.145 138.46 388.412 136.437C388.002 135.945 387.499 135.539 386.931 135.244C386.363 134.948 385.742 134.768 385.104 134.714C384.465 134.66 383.823 134.733 383.213 134.93C382.604 135.126 382.04 135.441 381.553 135.858C381.067 136.274 380.668 136.783 380.38 137.354C380.092 137.926 379.921 138.549 379.876 139.187C379.831 139.826 379.914 140.466 380.119 141.073C380.325 141.679 380.648 142.238 381.072 142.718Z" fill="#2D86DA"/>
<path opacity="0.1" d="M373.988 164.5C376.249 165.913 385.373 165.916 385.373 165.916C385.373 165.916 381.373 157.727 379.108 156.311C378.57 155.965 377.968 155.729 377.338 155.617C376.708 155.505 376.062 155.519 375.437 155.659C374.812 155.798 374.222 156.061 373.699 156.43C373.177 156.8 372.733 157.27 372.394 157.812C372.055 158.354 371.827 158.959 371.723 159.59C371.62 160.221 371.643 160.867 371.791 161.489C371.939 162.111 372.21 162.698 372.587 163.214C372.964 163.731 373.44 164.168 373.988 164.5Z" fill="#2D86DA"/>
<path opacity="0.1" d="M370.005 186.606C371.996 188.38 380.987 189.927 380.987 189.927C380.987 189.927 378.428 181.177 376.434 179.403C375.965 178.956 375.41 178.608 374.804 178.379C374.198 178.151 373.551 178.046 372.904 178.073C372.256 178.099 371.62 178.255 371.034 178.532C370.448 178.808 369.924 179.2 369.492 179.683C369.061 180.167 368.731 180.732 368.523 181.345C368.315 181.958 368.232 182.607 368.28 183.253C368.328 183.899 368.505 184.529 368.801 185.105C369.098 185.68 369.507 186.191 370.005 186.606Z" fill="#2D86DA"/>
</g>
<g opacity="0.1">
<path opacity="0.1" d="M343.789 196.335C343.789 196.335 341.43 184.389 346.287 176.2C348.347 172.779 349.241 168.782 348.834 164.809C348.626 162.925 348.246 161.065 347.698 159.25" stroke="#535461" stroke-width="2" stroke-miterlimit="10"/>
<path opacity="0.1" d="M350.731 154.07C350.6 155.495 347.635 159.392 347.635 159.392C347.635 159.392 345.431 155.022 345.562 153.597C345.66 152.942 346.006 152.35 346.527 151.942C347.048 151.534 347.706 151.34 348.365 151.4C349.025 151.461 349.636 151.771 350.074 152.267C350.513 152.764 350.744 153.408 350.722 154.07H350.731Z" fill="#2D86DA"/>
<path opacity="0.1" d="M354.273 162.358C353.387 163.484 348.779 165.145 348.779 165.145C348.779 165.145 349.307 160.293 350.194 159.156C350.626 158.638 351.244 158.31 351.915 158.239C352.586 158.169 353.258 158.363 353.789 158.779C354.32 159.196 354.667 159.802 354.757 160.471C354.848 161.139 354.674 161.816 354.273 162.358Z" fill="#2D86DA"/>
<path opacity="0.1" d="M352.847 175.836C351.514 176.361 346.697 175.472 346.697 175.472C346.697 175.472 349.611 171.53 350.947 171.014C351.581 170.787 352.28 170.815 352.894 171.093C353.508 171.371 353.99 171.877 354.237 172.504C354.484 173.131 354.478 173.829 354.219 174.451C353.96 175.073 353.469 175.57 352.85 175.836H352.847Z" fill="#2D86DA"/>
<path opacity="0.1" d="M349.468 185.784C348.254 186.527 343.346 186.463 343.346 186.463C343.346 186.463 345.552 182.093 346.779 181.35C347.07 181.164 347.396 181.038 347.737 180.979C348.078 180.921 348.428 180.931 348.765 181.009C349.102 181.088 349.419 181.233 349.7 181.436C349.98 181.639 350.216 181.895 350.396 182.191C350.575 182.487 350.693 182.815 350.744 183.157C350.794 183.499 350.776 183.848 350.689 184.183C350.603 184.517 350.45 184.832 350.241 185.107C350.031 185.382 349.768 185.612 349.468 185.784Z" fill="#2D86DA"/>
<path opacity="0.1" d="M343.331 164.924C344.263 166.013 348.937 167.478 348.937 167.478C348.937 167.478 348.206 162.625 347.274 161.552C346.826 161.029 346.189 160.705 345.503 160.652C344.816 160.598 344.137 160.819 343.613 161.267C343.09 161.714 342.766 162.35 342.712 163.036C342.659 163.722 342.88 164.401 343.328 164.924H343.331Z" fill="#2D86DA"/>
<path opacity="0.1" d="M339.527 176.616C340.741 177.374 345.64 177.377 345.64 177.377C345.64 177.377 343.491 172.979 342.277 172.221C341.694 171.87 340.996 171.762 340.333 171.92C339.671 172.079 339.097 172.491 338.737 173.068C338.376 173.645 338.256 174.341 338.404 175.005C338.552 175.669 338.955 176.249 339.527 176.619V176.616Z" fill="#2D86DA"/>
<path opacity="0.1" d="M337.394 188.486C338.462 189.439 343.291 190.27 343.291 190.27C343.291 190.27 341.919 185.572 340.863 184.619C340.347 184.176 339.678 183.952 338.999 183.997C338.32 184.042 337.686 184.351 337.233 184.858C336.78 185.366 336.544 186.031 336.577 186.71C336.61 187.389 336.909 188.028 337.409 188.489L337.394 188.486Z" fill="#2D86DA"/>
</g>
<g opacity="0.1">
<path opacity="0.1" d="M151.649 198.155C151.649 198.155 149.29 186.209 154.147 178.02C156.207 174.598 157.101 170.601 156.694 166.629C156.486 164.745 156.106 162.884 155.558 161.07" stroke="#535461" stroke-width="2" stroke-miterlimit="10"/>
<path opacity="0.1" d="M158.591 155.889C158.46 157.315 155.495 161.212 155.495 161.212C155.495 161.212 153.291 156.842 153.422 155.416C153.52 154.762 153.865 154.17 154.387 153.762C154.908 153.353 155.566 153.159 156.225 153.22C156.885 153.28 157.496 153.59 157.934 154.087C158.372 154.583 158.604 155.228 158.582 155.889H158.591Z" fill="#2D86DA"/>
<path opacity="0.1" d="M162.133 164.178C161.247 165.303 156.639 166.965 156.639 166.965C156.639 166.965 157.167 162.113 158.054 160.976C158.486 160.458 159.104 160.129 159.775 160.059C160.446 159.989 161.118 160.182 161.649 160.599C162.179 161.016 162.527 161.622 162.617 162.29C162.708 162.959 162.534 163.636 162.133 164.178Z" fill="#2D86DA"/>
<path opacity="0.1" d="M160.707 177.656C159.374 178.18 154.557 177.292 154.557 177.292C154.557 177.292 157.471 173.349 158.807 172.834C159.441 172.606 160.14 172.635 160.754 172.913C161.368 173.191 161.85 173.697 162.097 174.323C162.344 174.95 162.338 175.648 162.079 176.27C161.82 176.892 161.329 177.389 160.71 177.656H160.707Z" fill="#2D86DA"/>
<path opacity="0.1" d="M157.328 187.604C156.114 188.347 151.206 188.283 151.206 188.283C151.206 188.283 153.413 183.913 154.639 183.17C154.931 182.983 155.257 182.857 155.598 182.799C155.939 182.74 156.288 182.751 156.625 182.829C156.962 182.907 157.28 183.052 157.56 183.255C157.84 183.458 158.077 183.715 158.256 184.011C158.435 184.306 158.554 184.635 158.604 184.977C158.655 185.319 158.636 185.668 158.55 186.002C158.463 186.337 158.311 186.651 158.101 186.926C157.891 187.201 157.629 187.431 157.328 187.604Z" fill="#2D86DA"/>
<path opacity="0.1" d="M151.191 166.744C152.123 167.833 156.797 169.297 156.797 169.297C156.797 169.297 156.066 164.445 155.134 163.371C154.686 162.848 154.049 162.525 153.363 162.471C152.676 162.418 151.996 162.639 151.473 163.086C150.95 163.533 150.626 164.17 150.572 164.856C150.519 165.542 150.74 166.221 151.188 166.744H151.191Z" fill="#2D86DA"/>
<path opacity="0.1" d="M147.387 178.435C148.601 179.193 153.5 179.197 153.5 179.197C153.5 179.197 151.351 174.799 150.137 174.041C149.554 173.69 148.855 173.582 148.193 173.74C147.531 173.898 146.957 174.311 146.596 174.888C146.236 175.465 146.116 176.16 146.264 176.825C146.412 177.489 146.815 178.068 147.387 178.438V178.435Z" fill="#2D86DA"/>
<path opacity="0.1" d="M145.253 190.306C146.322 191.258 151.151 192.089 151.151 192.089C151.151 192.089 149.779 187.391 148.723 186.439C148.207 185.995 147.538 185.772 146.859 185.816C146.18 185.861 145.545 186.17 145.092 186.678C144.64 187.185 144.404 187.85 144.437 188.529C144.47 189.208 144.769 189.848 145.269 190.309L145.253 190.306Z" fill="#2D86DA"/>
</g>
<defs>
<linearGradient id="paint0_linear" x1="260.231" y1="215.093" x2="260.231" y2="0.0239974" gradientUnits="userSpaceOnUse">
<stop stop-color="#808080" stop-opacity="0.25"/>
<stop offset="0.54" stop-color="#808080" stop-opacity="0.12"/>
<stop offset="1" stop-color="#808080" stop-opacity="0.1"/>
</linearGradient>
</defs>
</svg>
