<svg width="11" height="7" viewBox="0 0 11 7" fill="none" xmlns="http://www.w3.org/2000/svg">
<path d="M5.03061 5.98276H4.99936C5.06186 6.04526 5.15561 6.07651 5.28061 6.07651C5.37436 6.07651 5.46811 6.04526 5.56186 5.98276L10.1869 1.38901C10.2494 1.32651 10.2806 1.23276 10.2806 1.13901C10.2806 1.04526 10.2494 0.951508 10.1869 0.857758L9.56186 0.232758C9.46811 0.170258 9.37436 0.139008 9.28061 0.139008C9.15561 0.139008 9.09311 0.170258 9.03061 0.232758L5.28061 3.95151L1.53061 0.232758C1.46811 0.170258 1.37436 0.139008 1.28061 0.139008C1.15561 0.139008 1.06186 0.170258 0.999362 0.232758L0.374362 0.857758C0.311862 0.951508 0.280612 1.04526 0.280612 1.13901C0.280612 1.23276 0.311862 1.32651 0.405612 1.38901L5.03061 5.98276Z" fill="#2D86DA"/>
</svg>
