<svg width="21" height="15" viewBox="0 0 21 15" fill="none" xmlns="http://www.w3.org/2000/svg">
<path d="M3.25183 6.29376C2.68933 6.29376 2.22058 6.10626 1.84558 5.70001C1.43933 5.32501 1.25183 4.85626 1.25183 4.29376C1.25183 3.76251 1.43933 3.29376 1.84558 2.88751C2.22058 2.51251 2.68933 2.29376 3.25183 2.29376C3.78308 2.29376 4.25183 2.51251 4.65808 2.88751C5.03308 3.29376 5.25183 3.76251 5.25183 4.29376C5.25183 4.85626 5.03308 5.32501 4.65808 5.70001C4.25183 6.10626 3.78308 6.29376 3.25183 6.29376ZM17.2518 6.29376C16.6893 6.29376 16.2206 6.10626 15.8456 5.70001C15.4393 5.32501 15.2518 4.85626 15.2518 4.29376C15.2518 3.76251 15.4393 3.29376 15.8456 2.88751C16.2206 2.51251 16.6893 2.29376 17.2518 2.29376C17.7831 2.29376 18.2518 2.51251 18.6581 2.88751C19.0331 3.29376 19.2518 3.76251 19.2518 4.29376C19.2518 4.85626 19.0331 5.32501 18.6581 5.70001C18.2518 6.10626 17.7831 6.29376 17.2518 6.29376ZM18.2518 7.29376C18.7831 7.29376 19.2518 7.51251 19.6581 7.88751C20.0331 8.29376 20.2518 8.76251 20.2518 9.29376V10.2938C20.2518 10.575 20.1268 10.825 19.9393 11.0125C19.7518 11.2 19.5018 11.2938 19.2518 11.2938H17.1893C17.0643 10.575 16.8143 9.91876 16.4081 9.29376C15.9706 8.70001 15.4706 8.23126 14.8456 7.88751C15.2206 7.51251 15.6893 7.29376 16.2518 7.29376H18.2518ZM10.2518 7.29376C9.62683 7.29376 9.03308 7.13751 8.50183 6.82501C7.93933 6.51251 7.53308 6.10626 7.22058 5.54376C6.90808 5.01251 6.75183 4.41876 6.75183 3.79376C6.75183 3.16876 6.90808 2.60626 7.22058 2.04376C7.53308 1.51251 7.93933 1.07501 8.50183 0.762512C9.03308 0.450012 9.62683 0.293762 10.2518 0.293762C10.8768 0.293762 11.4393 0.450012 12.0018 0.762512C12.5331 1.07501 12.9706 1.51251 13.2831 2.04376C13.5956 2.60626 13.7518 3.16876 13.7518 3.79376C13.7518 4.41876 13.5956 5.01251 13.2831 5.54376C12.9706 6.10626 12.5331 6.51251 12.0018 6.82501C11.4393 7.13751 10.8768 7.29376 10.2518 7.29376ZM12.6581 8.29376C13.2831 8.29376 13.8768 8.48126 14.4393 8.79376C15.0018 9.10626 15.4393 9.54376 15.7518 10.1063C16.0643 10.6688 16.2518 11.2625 16.2518 11.8875V12.7938C16.2518 13.2313 16.0956 13.575 15.8143 13.8563C15.5018 14.1688 15.1581 14.2938 14.7518 14.2938H5.75183C5.31433 14.2938 4.97058 14.1688 4.68933 13.8563C4.37683 13.575 4.25183 13.2313 4.25183 12.7938V11.8875C4.25183 11.2625 4.40808 10.6688 4.72058 10.1063C5.03308 9.54376 5.47058 9.10626 6.03308 8.79376C6.59558 8.48126 7.18933 8.29376 7.84558 8.29376H8.09558C8.78308 8.63751 9.50183 8.79376 10.2518 8.79376C10.9706 8.79376 11.6893 8.63751 12.4081 8.29376H12.6581ZM5.65808 7.88751C5.03308 8.23126 4.50183 8.70001 4.09558 9.29376C3.65808 9.91876 3.40808 10.575 3.31433 11.2938H1.25183C0.970585 11.2938 0.720585 11.2 0.533085 11.0125C0.345585 10.825 0.251835 10.575 0.251835 10.2938V9.29376C0.251835 8.76251 0.439335 8.29376 0.845585 7.88751C1.22058 7.51251 1.68933 7.29376 2.25183 7.29376H4.25183C4.78308 7.29376 5.25183 7.51251 5.65808 7.88751Z" fill="#45ADFA"/>
</svg>
