<svg width="596" height="878" viewBox="0 0 596 878" fill="none" xmlns="http://www.w3.org/2000/svg">
<rect x="95" y="-9" width="644" height="929" fill="#2D86DA" fill-opacity="0.2"/>
<path d="M214 270H161V323H214V270Z" fill="#D83E7F"/>
<path d="M190 296H147V253H190V296ZM150.308 292.692H186.692V256.308H150.308V292.692Z" fill="#3F3D56"/>
<path d="M425.5 162C447.315 162 465 144.315 465 122.5C465 100.685 447.315 83 425.5 83C403.685 83 386 100.685 386 122.5C386 144.315 403.685 162 425.5 162Z" fill="#2D86DA"/>
<path d="M389 129C384.451 129 380.004 127.651 376.222 125.124C372.439 122.597 369.492 119.004 367.751 114.802C366.01 110.599 365.554 105.974 366.442 101.513C367.329 97.0514 369.52 92.9532 372.737 89.7366C375.953 86.52 380.051 84.3294 384.513 83.4419C388.975 82.5545 393.599 83.01 397.802 84.7508C402.004 86.4916 405.597 89.4396 408.124 93.2219C410.651 97.0042 412 101.451 412 106C411.993 112.098 409.568 117.944 405.256 122.256C400.944 126.568 395.098 128.993 389 129ZM389 86.8333C385.209 86.8333 381.503 87.9574 378.352 90.0635C375.2 92.1696 372.743 95.163 371.292 98.6653C369.842 102.168 369.462 106.021 370.202 109.739C370.941 113.457 372.767 116.872 375.447 119.553C378.128 122.233 381.543 124.059 385.261 124.798C388.979 125.538 392.833 125.158 396.335 123.708C399.837 122.257 402.83 119.8 404.937 116.648C407.043 113.497 408.167 109.791 408.167 106C408.161 100.918 406.14 96.0467 402.546 92.4535C398.953 88.8604 394.082 86.8392 389 86.8333Z" fill="#3F3D56"/>
<path d="M288.851 752.065L294 720.968L229.709 707.322L232.348 628H200.885L198.467 700.691L111.921 682.321L113.729 628H82.2654L80.6787 675.69L17.4452 662.268L12.296 693.365L79.6153 707.654L77.564 769.305L5.14929 753.935L0 785.032L76.5005 801.269L73.9476 878H105.411L107.743 807.901L194.288 826.27L192.567 878H224.031L225.531 832.902L276.555 843.732L281.704 812.635L226.595 800.938L228.646 739.286L288.851 752.065ZM195.352 794.306L108.807 775.937L110.858 714.285L197.403 732.655L195.352 794.306Z" fill="#3F3D56"/>
<path opacity="0.2" d="M203.963 794L206 732.365L120.061 714L120 715.829L197.381 732.365L195.405 792.171L203.963 794Z" fill="black"/>
<path opacity="0.2" d="M207.371 701L210 628H200.563L198 699.163L207.371 701Z" fill="black"/>
<path opacity="0.2" d="M237.061 739L237 740.861L288.704 752L289 750.189L237.061 739Z" fill="black"/>
<path opacity="0.2" d="M88.6009 676L90 628H82.3454L81 674.159L88.6009 676Z" fill="black"/>
<path opacity="0.2" d="M234.061 833L234 834.858L276.703 844L277 842.192L234.061 833Z" fill="black"/>
<path opacity="0.2" d="M116.061 808L116 809.827L194.281 826.344L192.552 878H201.271L203 826.344L116.061 808Z" fill="black"/>
<path opacity="0.2" d="M77.4702 767.171L85.9756 769L88 707.37L21.5656 693.086L26.3561 663.779L18.0819 662L13 693.086L79.4344 707.37L77.4702 767.171Z" fill="black"/>
<path opacity="0.2" d="M8.66132 785.08L13.5054 755.779L5.13828 754L0 785.08L76.3387 801.31L73.7912 878H82.4521L85 801.31L8.66132 785.08Z" fill="black"/>
<path d="M469.764 378.415H407.243V485.489H469.764V378.415Z" fill="#2F2E41"/>
<path d="M482.258 373.918C475.503 393.974 465.145 412.248 444.034 412.248C422.924 412.248 407 395.054 405.811 373.918C404.291 346.911 422.437 335.476 444.034 335.588C469.548 335.72 490.275 350.116 482.258 373.918Z" fill="#2F2E41"/>
<path d="M418.523 524.421L396.446 607.702C396.446 607.702 375 622.5 383 635C396.446 627 404.856 617.189 404.856 617.189L433.24 547.613L418.523 524.421Z" fill="#FFB9B9"/>
<path d="M436.395 798.511C436.395 798.511 456.369 818.54 443.754 832.245H470.036L453.215 790.077L436.395 798.511Z" fill="#FFB9B9"/>
<path d="M456.99 831.573C456.99 831.573 456.99 822.916 448.569 828.11C440.149 833.304 413.016 847.156 413.016 847.156C413.016 847.156 394.304 857.545 421.437 859.276C448.569 861.008 474.766 854.948 474.766 851.485C474.766 848.022 471.96 831.44 471.96 831.44C471.96 831.44 466.346 837.633 456.99 831.573Z" fill="#2F2E41"/>
<path d="M460.574 815.377L459.523 850.166L479.496 853.328V819.594L460.574 815.377Z" fill="#FFB9B9"/>
<path d="M441.652 420.056C457.328 420.056 470.036 407.313 470.036 391.593C470.036 375.873 457.328 363.13 441.652 363.13C425.976 363.13 413.268 375.873 413.268 391.593C413.268 407.313 425.976 420.056 441.652 420.056Z" fill="#FFB9B9"/>
<path d="M431.665 414.258C431.665 414.258 445.331 445.884 434.818 456.426C424.306 466.967 450.587 456.426 450.587 456.426C450.587 456.426 464.254 436.396 474.766 435.342C474.766 435.342 458.997 426.908 460.049 404.77L431.665 414.258Z" fill="#FFB9B9"/>
<path d="M413.267 567.643L411.165 617.19C411.165 617.19 373.32 716.284 388.037 739.476C402.755 762.668 437.446 804.836 437.446 804.836C437.446 804.836 457.42 795.348 457.42 790.077C457.42 790.077 437.446 740.53 420.626 728.934C420.626 728.934 421.678 708.904 437.446 687.821L452.164 739.476L458.472 818.54C458.472 818.54 476.343 824.865 482.651 821.703C482.651 821.703 496.317 771.102 486.856 741.584L484.753 660.412C484.753 660.412 512.086 620.352 477.394 572.914L472.138 556.047C472.138 556.047 418.524 561.318 413.267 567.643Z" fill="#2F2E41"/>
<path d="M462.677 844.895C462.677 844.895 462.677 834.353 453.215 840.678C443.754 847.003 413.267 863.87 413.267 863.87C413.267 863.87 392.242 876.52 422.729 878.629C453.215 880.737 482.651 873.358 482.651 869.141C482.651 864.924 479.497 844.733 479.497 844.733C479.497 844.733 473.189 852.274 462.677 844.895Z" fill="#2F2E41"/>
<path d="M440.075 453.263L473.111 434.268C473.111 434.268 522.073 435.342 518.919 460.642C518.919 460.642 509.458 493.322 506.304 490.16L499.996 483.834C499.996 483.834 476.869 531.273 476.869 540.761C476.774 546.865 475.709 552.914 473.715 558.682L416.947 567.115C416.947 567.115 423.255 531.273 413.793 524.948C404.332 518.623 401.178 501.756 410.639 486.997C414.236 481.33 417.362 475.375 419.986 469.194C421.638 465.359 424.031 461.891 427.028 458.99C430.025 456.089 433.565 453.812 437.444 452.291L440.075 453.263Z" fill="#2D86DA"/>
<path d="M513.663 457.48C513.663 457.48 569.38 502.81 559.918 512.298C550.457 521.785 498.945 559.736 498.945 559.736C498.945 559.736 493.689 591.362 483.176 590.308C472.664 589.254 485.279 551.303 485.279 551.303L529.432 509.135L505.253 483.835L513.663 457.48Z" fill="#FFB9B9"/>
<path d="M444.035 343.657C452.368 343.657 459.123 336.883 459.123 328.527C459.123 320.171 452.368 313.397 444.035 313.397C435.702 313.397 428.946 320.171 428.946 328.527C428.946 336.883 435.702 343.657 444.035 343.657Z" fill="#2F2E41"/>
<path d="M425.929 320.457C425.929 316.707 427.319 313.09 429.828 310.308C432.337 307.527 435.787 305.779 439.508 305.403C439.012 305.354 438.509 305.327 437.999 305.327C433.998 305.327 430.16 306.921 427.33 309.759C424.501 312.596 422.911 316.445 422.911 320.457C422.911 324.47 424.501 328.319 427.33 331.156C430.16 333.994 433.998 335.588 437.999 335.588C438.509 335.588 439.012 335.561 439.508 335.511C435.787 335.136 432.337 333.388 429.828 330.607C427.319 327.825 425.929 324.208 425.929 320.457Z" fill="#2F2E41"/>
<path d="M426.628 361.22C426.628 361.22 426.313 359.461 413.991 364.095C401.67 368.728 394.284 402.922 400.444 423.001C402.927 431.092 400.908 436.927 397.611 441.009C385.241 456.327 390.11 479.334 408.129 487.211C408.637 487.434 409.156 487.654 409.686 487.871L417.387 492.504C417.387 492.504 407.57 479.551 412.483 462.981C416.749 448.863 417.276 433.874 414.011 419.489C413.448 417.063 412.808 414.561 412.08 412.009C405.919 390.385 408.916 392.882 430.479 371.259C430.479 371.259 442.801 380.526 453.582 385.16C464.364 389.793 473.605 394.427 465.904 409.872C458.203 425.318 439.72 439.218 452.042 459.297C464.364 479.376 465.904 471.653 464.364 479.376L462.824 487.098L472.065 477.831L465.904 490.188C465.904 490.188 485.927 490.188 492.088 474.742L495.169 477.831C495.169 477.831 507.491 456.208 484.387 436.129C484.387 436.129 476.686 431.496 487.468 416.05C498.249 400.605 489.969 367.398 476.107 361.22C462.245 355.042 426.628 361.22 426.628 361.22Z" fill="#2F2E41"/>
<path d="M294 506L260 492.455L226 478.911L254.618 455.956L283.236 433L288.618 469.501L294 506Z" fill="white"/>
<path d="M53.0409 852.33C63.3703 870.003 84.2031 877 84.2031 877C84.2031 877 88.2885 855.343 77.9591 837.67C67.6297 819.997 46.7969 813 46.7969 813C46.7969 813 42.7115 834.657 53.0409 852.33Z" fill="#2D86DA"/>
<path d="M59.5313 846.358C77.4805 856.257 85 876.925 85 876.925C85 876.925 63.418 881.542 45.4687 871.642C27.5195 861.743 20 841.075 20 841.075C20 841.075 41.582 836.458 59.5313 846.358Z" fill="#2D86DA"/>
<path d="M227.579 857.179C220.988 866.567 222.065 879 222.065 879C222.065 879 233.83 876.21 240.421 866.821C247.012 857.433 245.935 845 245.935 845C245.935 845 234.17 847.79 227.579 857.179Z" fill="#2D86DA"/>
<path d="M231.888 859.25C230.777 870.572 221.49 879 221.49 879C221.49 879 214.002 869.072 215.112 857.75C216.223 846.428 225.51 838 225.51 838C225.51 838 232.998 847.928 231.888 859.25Z" fill="white"/>
<path d="M506.231 448.844L502.142 480.007L506.231 489.848C506.231 489.848 524.223 467.706 518.498 455.404C512.774 443.103 506.231 448.844 506.231 448.844Z" fill="#2D86DA"/>
<path d="M214.206 129.274L198.603 123.1L183 116.926L196.133 106.464L209.267 96L211.736 112.637L214.206 129.274Z" fill="white"/>
</svg>
