<svg width="214" height="169" viewBox="0 0 214 169" fill="none" xmlns="http://www.w3.org/2000/svg">
<path d="M48.9758 168.879C67.0508 168.879 81.7036 167.109 81.7036 164.926C81.7036 162.742 67.0508 160.972 48.9758 160.972C30.9008 160.972 16.248 162.742 16.248 164.926C16.248 167.109 30.9008 168.879 48.9758 168.879Z" fill="#F2F2F2"/>
<path d="M117.913 168.879C135.988 168.879 150.641 167.109 150.641 164.926C150.641 162.742 135.988 160.972 117.913 160.972C99.8378 160.972 85.1851 162.742 85.1851 164.926C85.1851 167.109 99.8378 168.879 117.913 168.879Z" fill="#F2F2F2"/>
<path d="M160.545 94.8756L163.407 77.5919L127.673 70.0074L129.14 25.9197H111.653L110.309 66.3216L62.2064 56.1117L63.2109 25.9197H45.7235L44.8416 52.4259L9.69615 44.9661L6.83415 62.2498L44.2506 70.1916L43.1105 104.458L2.862 95.9148L0 113.199L42.5194 122.223L41.1004 164.871H58.5878L59.8841 125.909L107.986 136.119L107.03 164.871H124.517L125.351 139.805L153.71 145.824L156.572 128.541L125.942 122.039L127.082 87.7731L160.545 94.8756ZM108.578 118.353L60.4752 108.144L61.6153 73.8773L109.718 84.0873L108.578 118.353Z" fill="#3F3D56"/>
<path opacity="0.2" d="M113.402 118.353L114.542 84.0872L66.4397 73.8772L66.4058 74.8941L109.718 84.0872L108.612 117.337L113.402 118.353Z" fill="black"/>
<path opacity="0.2" d="M115.133 66.3217L116.477 25.9196H111.653L110.343 65.3047L115.133 66.3217Z" fill="black"/>
<path opacity="0.2" d="M131.906 87.7731L131.873 88.7898L160.545 94.8757L160.708 93.8864L131.906 87.7731Z" fill="black"/>
<path opacity="0.2" d="M49.6658 52.4258L50.5476 25.9196H45.7234L44.8755 51.4091L49.6658 52.4258Z" fill="black"/>
<path opacity="0.2" d="M130.175 139.805L130.142 140.822L153.71 145.824L153.874 144.835L130.175 139.805Z" fill="black"/>
<path opacity="0.2" d="M64.7087 125.909L64.6748 126.926L107.987 136.119L107.03 164.871H111.854L112.811 136.119L64.7087 125.909Z" fill="black"/>
<path opacity="0.2" d="M43.1441 103.441L47.9345 104.458L49.0746 70.1917L11.6582 62.2499L14.3563 45.9553L9.69615 44.9661L6.83398 62.2499L44.2504 70.1917L43.1441 103.441Z" fill="black"/>
<path opacity="0.2" d="M4.82421 113.198L7.52228 96.9039L2.86194 95.9147L0 113.198L42.5194 122.223L41.1005 164.871H45.9245L47.3436 122.223L4.82421 113.198Z" fill="black"/>
<path d="M188.106 27.0557H170.361V57.417H188.106V27.0557Z" fill="#2F2E41"/>
<path d="M191.652 25.7804C189.734 31.4675 186.795 36.6492 180.803 36.6492C174.812 36.6492 170.292 31.7735 169.954 25.7804C169.523 18.1224 174.673 14.8799 180.803 14.9116C188.044 14.9491 193.927 19.0313 191.652 25.7804Z" fill="#2F2E41"/>
<path d="M173.563 68.4565L167.297 92.0715C167.297 92.0715 158.943 94.1639 159.838 96.2564C160.733 98.3489 169.684 94.7618 169.684 94.7618L177.74 75.0328L173.563 68.4565Z" fill="#FFB9B9"/>
<path d="M178.635 146.177C178.635 146.177 184.304 151.856 180.723 155.742H188.183L183.409 143.785L178.635 146.177Z" fill="#FFB9B9"/>
<path d="M184.48 155.552C184.48 155.552 184.48 153.097 182.09 154.57C179.7 156.043 171.999 159.97 171.999 159.97C171.999 159.97 166.688 162.916 174.389 163.407C182.09 163.898 189.525 162.18 189.525 161.198C189.525 160.216 188.728 155.514 188.728 155.514C188.728 155.514 187.135 157.27 184.48 155.552Z" fill="#2F2E41"/>
<path d="M185.497 150.959L185.199 160.824L190.868 161.721V152.155L185.497 150.959Z" fill="#FFB9B9"/>
<path d="M180.127 38.8632C184.576 38.8632 188.183 35.2497 188.183 30.7922C188.183 26.3348 184.576 22.7213 180.127 22.7213C175.678 22.7213 172.071 26.3348 172.071 30.7922C172.071 35.2497 175.678 38.8632 180.127 38.8632Z" fill="#FFB9B9"/>
<path d="M177.292 37.2191C177.292 37.2191 181.171 46.1868 178.187 49.1761C175.203 52.1653 182.663 49.1761 182.663 49.1761C182.663 49.1761 186.541 43.4965 189.525 43.1976C189.525 43.1976 185.05 40.8062 185.348 34.5288L177.292 37.2191Z" fill="#FFB9B9"/>
<path d="M172.071 80.7125L171.474 94.7619C171.474 94.7619 160.733 122.861 164.91 129.437C169.087 136.013 178.933 147.97 178.933 147.97C178.933 147.97 184.602 145.28 184.602 143.785C184.602 143.785 178.933 129.736 174.159 126.448C174.159 126.448 174.458 120.768 178.933 114.79L183.11 129.437L184.901 151.856C184.901 151.856 189.973 153.65 191.763 152.753C191.763 152.753 195.642 138.405 192.957 130.035L192.36 107.018C192.36 107.018 200.117 95.6586 190.271 82.2071L188.779 77.4243C188.779 77.4243 173.563 78.9189 172.071 80.7125Z" fill="#2F2E41"/>
<path d="M186.094 159.329C186.094 159.329 186.094 156.34 183.408 158.134C180.723 159.927 172.07 164.71 172.07 164.71C172.07 164.71 166.103 168.297 174.756 168.895C183.408 169.493 191.763 167.4 191.763 166.204C191.763 165.009 190.868 159.283 190.868 159.283C190.868 159.283 189.077 161.422 186.094 159.329Z" fill="#2F2E41"/>
<path d="M179.679 48.2792L189.055 42.8931C189.055 42.8931 202.951 43.1975 202.056 50.3716C202.056 50.3716 199.371 59.6383 198.476 58.7415L196.686 56.948C196.686 56.948 190.122 70.3995 190.122 73.0898C190.095 74.8206 189.793 76.536 189.227 78.1715L173.115 80.5629C173.115 80.5629 174.905 70.3995 172.22 68.606C169.534 66.8124 168.639 62.0296 171.325 57.8447C172.345 56.2377 173.233 54.5492 173.977 52.7965C174.446 51.7092 175.125 50.7259 175.976 49.9032C176.826 49.0806 177.831 48.435 178.932 48.0037L179.679 48.2792Z" fill="#2D86DA"/>
<path d="M200.565 49.475C200.565 49.475 216.378 62.3287 213.693 65.019C211.007 67.7093 196.387 78.4705 196.387 78.4705C196.387 78.4705 194.896 87.4382 191.912 87.1393C188.928 86.8404 192.509 76.0791 192.509 76.0791L205.04 64.1222L198.178 56.9481L200.565 49.475Z" fill="#FFB9B9"/>
<path d="M180.803 17.1998C183.168 17.1998 185.085 15.2789 185.085 12.9095C185.085 10.54 183.168 8.61914 180.803 8.61914C178.438 8.61914 176.521 10.54 176.521 12.9095C176.521 15.2789 178.438 17.1998 180.803 17.1998Z" fill="#2F2E41"/>
<path d="M175.664 10.6214C175.664 9.55783 176.059 8.53222 176.771 7.74348C177.483 6.95475 178.462 6.45912 179.518 6.35272C179.377 6.3387 179.235 6.33105 179.09 6.33105C177.954 6.33105 176.865 6.78307 176.062 7.58766C175.259 8.39225 174.808 9.48351 174.808 10.6214C174.808 11.7592 175.259 12.8505 176.062 13.6551C176.865 14.4597 177.954 14.9117 179.09 14.9117C179.235 14.9117 179.377 14.904 179.518 14.89C178.462 14.7836 177.483 14.288 176.771 13.4993C176.059 12.7105 175.664 11.6849 175.664 10.6214Z" fill="#2F2E41"/>
<path d="M175.863 22.1797C175.863 22.1797 175.773 21.681 172.276 22.9949C168.779 24.3088 166.683 34.0047 168.431 39.6982C169.136 41.9926 168.563 43.6469 167.627 44.8044C164.116 49.148 165.498 55.6719 170.612 57.9055C170.756 57.9686 170.904 58.0309 171.054 58.0925L173.24 59.4064C173.24 59.4064 170.453 55.7333 171.848 51.0348C173.059 47.0315 173.208 42.7812 172.282 38.7024C172.122 38.0143 171.94 37.3051 171.734 36.5813C169.985 30.4498 170.835 31.1579 176.956 25.0265C176.956 25.0265 180.453 27.6542 183.513 28.9681C186.573 30.282 189.196 31.5959 187.01 35.9755C184.824 40.3551 179.578 44.2967 183.076 49.9902C186.573 55.6837 187.01 53.4939 186.573 55.6837L186.136 57.8735L188.759 55.2458L187.01 58.7494C187.01 58.7494 192.693 58.7494 194.441 54.3698L195.316 55.2458C195.316 55.2458 198.813 49.1143 192.256 43.4208C192.256 43.4208 190.07 42.1069 193.13 37.7273C196.19 33.3477 193.84 23.9316 189.906 22.1797C185.971 20.4279 175.863 22.1797 175.863 22.1797Z" fill="#2F2E41"/>
<path d="M89.6948 9.43499L85.2663 7.6844L80.8379 5.93381L84.5654 2.96702L88.2928 0L88.9938 4.71761L89.6948 9.43499Z" fill="#F2F2F2"/>
<path d="M86.1711 42.7793L81.7429 41.0288L77.3145 39.2779L80.8307 36.8472L84.347 34.4164L85.2592 38.5977L86.1711 42.7793Z" fill="#F2F2F2"/>
<path d="M78.5532 87.5696L74.1248 85.819L69.6963 84.0685L73.4238 81.1017L77.1513 78.1346L77.8522 82.8523L78.5532 87.5696Z" fill="#F2F2F2"/>
<path d="M32.1183 138.208L27.9358 140.486L23.7534 142.764L23.875 137.996L23.9969 133.228L28.0575 135.718L32.1183 138.208Z" fill="#F2F2F2"/>
<path d="M27.94 31.2375L23.7576 33.5158L19.5752 35.7942L19.6968 31.0261L19.8187 26.2583L23.8792 28.7479L27.94 31.2375Z" fill="#F2F2F2"/>
<path d="M49.1722 157.62C52.0294 162.502 57.792 164.435 57.792 164.435C57.792 164.435 58.9221 158.453 56.0649 153.571C53.2076 148.689 47.445 146.757 47.445 146.757C47.445 146.757 46.315 152.739 49.1722 157.62Z" fill="#F2F2F2"/>
<path d="M50.9554 155.916C55.8967 158.658 57.9667 164.382 57.9667 164.382C57.9667 164.382 52.0254 165.661 47.0841 162.919C42.1428 160.177 40.0728 154.453 40.0728 154.453C40.0728 154.453 46.0141 153.175 50.9554 155.916Z" fill="#2D86DA"/>
<path d="M140.2 153.577C136.881 158.156 137.424 164.22 137.424 164.22C137.424 164.22 143.347 162.859 146.666 158.28C149.985 153.701 149.442 147.637 149.442 147.637C149.442 147.637 143.519 148.997 140.2 153.577Z" fill="#2D86DA"/>
<path d="M142.473 154.53C141.946 160.165 137.542 164.359 137.542 164.359C137.542 164.359 133.991 159.418 134.517 153.784C135.044 148.15 139.448 143.955 139.448 143.955C139.448 143.955 142.999 148.896 142.473 154.53Z" fill="#2D86DA"/>
<path d="M198.455 47.0261L197.295 55.8627L198.455 58.6533C198.455 58.6533 203.562 52.3746 201.937 48.8864C200.312 45.3983 198.455 47.0261 198.455 47.0261Z" fill="#2D86DA"/>
</svg>
