<svg width="325" height="229" viewBox="0 0 325 229" fill="none" xmlns="http://www.w3.org/2000/svg">
<g clip-path="url(#clip0)">
<path d="M121.887 222.744C179.945 222.744 227.01 175.526 227.01 117.279C227.01 59.0323 179.945 11.814 121.887 11.814C63.8286 11.814 16.7632 59.0323 16.7632 117.279C16.7632 175.526 63.8286 222.744 121.887 222.744Z" fill="white"/>
<path d="M139.004 133.567C115.772 169.309 122.138 214.769 122.138 214.769C122.138 214.769 166.169 202.279 189.4 166.537C212.631 130.794 206.266 85.3348 206.266 85.3348C206.266 85.3348 162.235 97.8249 139.004 133.567Z" fill="#3F3D56"/>
<path d="M122.014 214.353C122.014 214.353 121.449 214.263 120.408 214.051C119.577 213.882 118.434 213.641 117.038 213.309C104.56 210.357 71.3858 200.38 49.6966 174.147C22.5504 141.3 23.6935 95.408 23.6935 95.408C23.6935 95.408 65.2009 102.174 92.5516 131.672C93.7369 132.94 94.89 134.254 96.011 135.614C119.632 164.194 121.834 202.649 122.008 212.156C122.032 213.58 122.014 214.353 122.014 214.353Z" fill="#2D86DA"/>
<path d="M105.272 133.567C128.503 169.309 122.138 214.769 122.138 214.769C122.138 214.769 78.1067 202.279 54.8754 166.537C31.644 130.794 38.0094 85.3348 38.0094 85.3348C38.0094 85.3348 82.0403 97.8249 105.272 133.567Z" stroke="#3F3D56" stroke-width="2" stroke-miterlimit="10"/>
<path opacity="0.1" d="M122.008 212.156C121.394 212.899 120.853 213.532 120.408 214.051C119.421 215.18 118.861 215.772 118.861 215.772C118.861 215.772 118.182 214.915 117.039 213.309C110.763 204.533 90.5783 173.327 92.1365 137.28C92.2207 135.39 92.3591 133.521 92.5516 131.672C93.7369 132.94 94.89 134.254 96.0111 135.614C119.632 164.194 121.834 202.649 122.008 212.156Z" fill="black"/>
<path d="M156.454 139.886C154.618 182.516 123.075 215.772 123.075 215.772C123.075 215.772 94.5097 179.91 96.346 137.28C98.1823 94.6504 129.725 61.3949 129.725 61.3949C129.725 61.3949 158.29 97.2564 156.454 139.886Z" fill="#2D86DA"/>
<path d="M123.075 214.565L130.01 63.1336" stroke="#3F3D56" stroke-width="2" stroke-miterlimit="10"/>
<path d="M162.5 228.378C252.246 228.378 325 223.867 325 218.302C325 212.737 252.246 208.225 162.5 208.225C72.7537 208.225 0 212.737 0 218.302C0 223.867 72.7537 228.378 162.5 228.378Z" fill="#3F3D56"/>
<path d="M26.9734 214.599V173.9" stroke="#3F3D56" stroke-width="2" stroke-miterlimit="10"/>
<path d="M26.9735 179.656C30.1418 179.656 32.7102 177.079 32.7102 173.9C32.7102 170.722 30.1418 168.145 26.9735 168.145C23.8052 168.145 21.2368 170.722 21.2368 173.9C21.2368 177.079 23.8052 179.656 26.9735 179.656Z" fill="#3F3D56"/>
<path d="M26.9735 198.984C26.9735 198.984 26.1539 181.3 9.35364 183.356L26.9735 198.984Z" fill="#3F3D56"/>
<path d="M166.687 148.157V34.1808" stroke="#3F3D56" stroke-width="2" stroke-miterlimit="10"/>
<path d="M166.687 42.0971C171.045 42.0971 174.577 38.5528 174.577 34.1808C174.577 29.8088 171.045 26.2645 166.687 26.2645C162.329 26.2645 158.796 29.8088 158.796 34.1808C158.796 38.5528 162.329 42.0971 166.687 42.0971Z" fill="#3F3D56"/>
<path d="M166.687 66.4202C166.687 66.4202 165.56 42.0971 142.451 44.9243L166.687 66.4202Z" fill="#3F3D56"/>
<path d="M261.469 85.0829L254.619 98.0338C254.619 98.0338 205.091 107.549 211.414 122.35C217.737 137.151 224.85 158.823 228.538 158.295C232.226 157.766 252.511 146.137 253.302 142.701C254.092 139.265 235.124 123.142 235.124 123.142L266.474 117.064C266.474 117.064 270.953 138.208 265.157 152.744C259.361 167.281 255.936 206.662 259.888 207.191C263.84 207.719 273.851 210.891 278.329 207.984C282.808 205.076 284.915 141.379 284.915 141.379C284.915 141.379 294.399 99.6196 288.604 94.8621C282.808 90.1047 261.469 85.0829 261.469 85.0829Z" fill="#2F2E41"/>
<path d="M272.232 200.769C272.232 200.769 266.178 197.573 264.904 200.13C264.904 200.13 265.86 207.802 262.036 208.761C258.213 209.72 256.62 216.432 262.036 217.072C267.453 217.711 270.957 215.793 272.869 215.793C274.781 215.793 272.869 209.08 272.869 209.08L272.232 200.769Z" fill="#2F2E41"/>
<path d="M243.358 147.711C243.358 147.711 236.769 145.867 236.061 148.636C236.061 148.636 238.608 155.933 235.072 157.68C231.536 159.426 231.39 166.325 236.819 165.804C242.248 165.283 245.271 162.666 247.139 162.262C249.008 161.857 245.728 155.7 245.728 155.7L243.358 147.711Z" fill="#2F2E41"/>
<path d="M276.09 39.4908C276.09 39.4908 276.353 49.27 274.509 50.0629C272.665 50.8558 284.784 55.6132 284.784 55.6132L286.891 51.913C286.891 51.913 284.52 38.6979 285.047 37.6407C285.574 36.5835 276.09 39.4908 276.09 39.4908Z" fill="#9F616A"/>
<path d="M280.486 41.7142C289.407 41.7142 296.639 34.4588 296.639 25.5088C296.639 16.5588 289.407 9.30344 280.486 9.30344C271.565 9.30344 264.333 16.5588 264.333 25.5088C264.333 34.4588 271.565 41.7142 280.486 41.7142Z" fill="#2F2E41"/>
<path d="M281.6 17.0436C285.291 17.0436 288.284 14.0413 288.284 10.3379C288.284 6.63446 285.291 3.63223 281.6 3.63223C277.908 3.63223 274.916 6.63446 274.916 10.3379C274.916 14.0413 277.908 17.0436 281.6 17.0436Z" fill="#2F2E41"/>
<path d="M272.688 6.70568C272.688 5.04816 273.3 3.44941 274.406 2.21782C275.511 0.986228 277.032 0.209068 278.676 0.0362576C278.444 0.0121619 278.212 5.99087e-05 277.979 0C276.207 3.74782e-08 274.506 0.70649 273.253 1.96405C271.999 3.22161 271.295 4.92722 271.295 6.70568C271.295 8.48414 271.999 10.1898 273.253 11.4473C274.506 12.7049 276.207 13.4114 277.979 13.4114C278.212 13.4113 278.444 13.3992 278.676 13.3751C277.032 13.2023 275.511 12.4251 274.406 11.1935C273.3 9.96195 272.688 8.36319 272.688 6.70568Z" fill="#2F2E41"/>
<path d="M280.042 44.5125C286.152 44.5125 291.106 39.5426 291.106 33.4118C291.106 27.2811 286.152 22.3111 280.042 22.3111C273.931 22.3111 268.977 27.2811 268.977 33.4118C268.977 39.5426 273.931 44.5125 280.042 44.5125Z" fill="#9F616A"/>
<path d="M287.813 47.8163C287.813 47.8163 278.329 50.7236 273.587 47.8163C268.845 44.909 257.517 53.3667 255.673 57.0669C253.829 60.7671 262.522 64.4674 262.522 64.4674C262.522 64.4674 260.04 71.6128 260.546 75.1716C261.073 78.8718 260.151 86.4044 260.151 86.4044C260.151 86.4044 283.426 101.788 288.603 94.8621C289.394 93.8049 295.98 68.9605 295.98 68.9605L305.201 59.7099C305.201 59.7099 299.405 51.2522 295.98 50.4593C292.555 49.6664 287.813 47.8163 287.813 47.8163Z" fill="#D0CDE1"/>
<path d="M224.191 102.13C224.191 102.13 206.277 111.381 209.965 114.024C213.653 116.667 228.669 103.716 228.669 103.716L224.191 102.13Z" fill="#9F616A"/>
<path d="M294.531 95.5229C294.531 95.5229 286.56 90.1236 285.277 92.8232C283.993 95.5229 294.004 101.602 296.112 99.2231C298.219 96.8444 294.531 95.5229 294.531 95.5229Z" fill="#9F616A"/>
<path d="M300.459 56.8026L305.201 59.7099C305.201 59.7099 321.271 81.9113 315.739 86.933C310.206 91.9548 295.98 101.998 295.98 101.998C295.98 101.998 291.238 95.1264 292.819 94.8621C294.399 94.5978 307.045 84.0257 307.045 84.0257L295.98 63.4101L300.459 56.8026Z" fill="#D0CDE1"/>
<path d="M258.834 55.7454L255.409 57.0669L246.452 73.1893L222.742 101.998C222.742 101.998 225.903 107.02 228.538 105.963C231.172 104.906 250.931 82.7042 250.931 82.7042L263.84 62.6172L258.834 55.7454Z" fill="#D0CDE1"/>
<path d="M280.486 26.9284C286.638 26.9284 291.626 23.9262 291.626 20.2227C291.626 16.5193 286.638 13.5171 280.486 13.5171C274.333 13.5171 269.346 16.5193 269.346 20.2227C269.346 23.9262 274.333 26.9284 280.486 26.9284Z" fill="#2F2E41"/>
<path d="M257.479 163.551H205.563V215.636H257.479V163.551Z" fill="#D83E7F"/>
<path d="M250.577 187.428C250.577 194.806 247.133 199.456 241.684 199.456C238.895 199.456 236.771 197.963 236.404 195.742H236.007C235.025 198.052 233 199.317 230.281 199.317C225.437 199.317 222.202 195.424 222.202 189.629C222.202 184.062 225.457 180.189 230.211 180.189C232.653 180.189 234.727 181.424 235.64 183.445H236.037V180.677H239.997V193.552C239.997 195.155 240.88 196.121 242.468 196.121C245.218 196.121 246.964 192.775 246.964 187.577C246.964 179.283 240.771 173.737 231.62 173.737C222.569 173.737 216.118 180.358 216.118 189.728C216.118 199.307 222.499 205.421 232.434 205.421C234.244 205.431 236.051 205.278 237.833 204.963C238.236 204.885 238.653 204.968 238.995 205.195C239.337 205.422 239.577 205.773 239.664 206.175C239.751 206.577 239.677 206.997 239.459 207.345C239.242 207.694 238.897 207.943 238.498 208.039C236.456 208.5 234.369 208.727 232.275 208.716C220.197 208.707 212.465 201.219 212.465 189.599C212.465 178.257 220.356 170.471 231.859 170.471C242.915 170.471 250.577 177.391 250.577 187.428ZM226.479 189.718C226.479 193.402 228.206 195.633 231.015 195.633C233.973 195.633 235.839 193.343 235.839 189.718C235.839 186.094 233.973 183.853 231.065 183.853C228.177 183.853 226.479 186.024 226.479 189.718Z" fill="white"/>
</g>
<defs>
<clipPath id="clip0">
<rect width="325" height="228.378" fill="white"/>
</clipPath>
</defs>
</svg>
