<svg width="21" height="21" viewBox="0 0 21 21" fill="none" xmlns="http://www.w3.org/2000/svg">
<path d="M17.6523 0.776428C18.082 0.542053 18.5508 0.502991 19.0195 0.620178C19.4883 0.737366 19.8398 0.971741 20.1133 1.36237C20.3867 1.75299 20.5039 2.22174 20.4258 2.69049L18.1211 17.8467C18.0039 18.4717 17.6914 18.9014 17.1836 19.1749C16.8711 19.3311 16.5977 19.4092 16.2852 19.4092C16.0117 19.4092 15.7773 19.3702 15.543 19.2921L11.168 17.4561L9.48828 19.7999C9.09766 20.2686 8.66797 20.503 8.12109 20.5421C7.57422 20.5811 7.10547 20.4249 6.71484 20.0733C6.28516 19.7217 6.08984 19.253 6.08984 18.6671V15.3858L1.63672 13.5108C1.16797 13.3546 0.816406 13.0421 0.621094 12.5733C0.425781 12.1436 0.386719 11.7139 0.542969 11.2452C0.660156 10.7764 0.933594 10.4249 1.40234 10.1514L17.6523 0.776428ZM7.96484 18.6671L9.41016 16.7139L7.96484 16.128V18.6671ZM16.2852 17.5342L18.5898 2.41705L2.33984 11.7921L6.55859 13.5499L14.8008 6.3233C14.957 6.16705 15.1523 6.12799 15.3867 6.20612C15.582 6.28424 15.7383 6.40143 15.8164 6.59674C15.8945 6.79205 15.8555 6.98737 15.7383 7.14362L10.2695 15.0733L16.2852 17.5342Z" fill="#2D86DA"/>
</svg>
