<svg width="18" height="21" viewBox="0 0 18 21" fill="none" xmlns="http://www.w3.org/2000/svg">
<path d="M8 8.30762C8 8.19043 7.92188 8.07324 7.84375 7.99512C7.76562 7.91699 7.64844 7.83887 7.53125 7.83887H6.59375C6.4375 7.83887 6.32031 7.91699 6.24219 7.99512C6.16406 8.07324 6.125 8.19043 6.125 8.30762V16.7451C6.125 16.9014 6.16406 17.0186 6.24219 17.0967C6.32031 17.1748 6.4375 17.2139 6.59375 17.2139H7.53125C7.64844 17.2139 7.76562 17.1748 7.84375 17.0967C7.92188 17.0186 8 16.9014 8 16.7451V8.30762ZM11.9062 7.83887C12.0234 7.83887 12.1406 7.91699 12.2188 7.99512C12.2969 8.07324 12.375 8.19043 12.375 8.30762V16.7451C12.375 16.9014 12.2969 17.0186 12.2188 17.0967C12.1406 17.1748 12.0234 17.2139 11.9062 17.2139H10.9688C10.8125 17.2139 10.6953 17.1748 10.6172 17.0967C10.5391 17.0186 10.5 16.9014 10.5 16.7451V8.30762C10.5 8.19043 10.5391 8.07324 10.6172 7.99512C10.6953 7.91699 10.8125 7.83887 10.9688 7.83887H11.9062ZM17.0625 4.08887H14.1719L12.8438 1.8623C12.6484 1.58887 12.4141 1.35449 12.1406 1.19824C11.8281 1.04199 11.5156 0.963867 11.2031 0.963867H7.29688C6.94531 0.963867 6.63281 1.04199 6.35938 1.19824C6.04688 1.35449 5.8125 1.58887 5.65625 1.8623L4.32812 4.08887H1.4375C1.16406 4.08887 0.929688 4.20605 0.773438 4.3623C0.578125 4.55762 0.5 4.79199 0.5 5.02637V5.49512C0.5 5.65137 0.539062 5.76855 0.617188 5.84668C0.695312 5.9248 0.8125 5.96387 0.96875 5.96387H1.75V19.0889C1.75 19.6357 1.90625 20.0654 2.29688 20.417C2.64844 20.8076 3.07812 20.9639 3.625 20.9639H14.875C15.3828 20.9639 15.8125 20.8076 16.2031 20.417C16.5547 20.0654 16.75 19.6357 16.75 19.0889V5.96387H17.5312C17.6484 5.96387 17.7656 5.9248 17.8438 5.84668C17.9219 5.76855 18 5.65137 18 5.49512V5.02637C18 4.79199 17.8828 4.55762 17.7266 4.3623C17.5312 4.20605 17.2969 4.08887 17.0625 4.08887ZM6.51562 4.08887L7.21875 2.95605C7.25781 2.87793 7.33594 2.83887 7.41406 2.83887H11.0859C11.1641 2.83887 11.2031 2.87793 11.2812 2.95605L11.9844 4.08887H6.51562ZM14.875 5.96387V18.8545C14.875 18.9326 14.8359 18.9717 14.7969 19.0107C14.7188 19.0889 14.6797 19.0889 14.6406 19.0889H3.85938C3.78125 19.0889 3.74219 19.0889 3.70312 19.0107C3.625 18.9717 3.625 18.9326 3.625 18.8545V5.96387H14.875Z" fill="#2D86DA"/>
</svg>
