<svg width="17" height="14" viewBox="0 0 17 14" fill="none" xmlns="http://www.w3.org/2000/svg">
<path d="M14.5956 4.04376C15.2206 3.57501 15.7831 3.01251 16.2518 2.32501C15.6268 2.60626 15.0018 2.79376 14.3768 2.85626C15.0643 2.41876 15.5643 1.82501 15.8143 1.04376C15.1581 1.41876 14.4706 1.70001 13.7206 1.82501C13.4081 1.51251 13.0331 1.26251 12.6268 1.07501C12.2206 0.887512 11.7831 0.793762 11.3143 0.793762C10.7206 0.793762 10.1893 0.950012 9.68933 1.23126C9.18933 1.54376 8.78308 1.95001 8.50183 2.45001C8.18933 2.95001 8.06433 3.51251 8.06433 4.07501C8.06433 4.32501 8.06433 4.57501 8.12683 4.82501C6.78308 4.76251 5.53308 4.45001 4.34558 3.82501C3.15808 3.23126 2.18933 2.41876 1.37683 1.38751C1.06433 1.91876 0.908085 2.48126 0.908085 3.04376C0.908085 3.60626 1.03308 4.13751 1.31433 4.60626C1.56433 5.10626 1.93933 5.48126 2.37683 5.79376C1.84558 5.79376 1.34558 5.63751 0.908085 5.35626V5.41876C0.908085 6.20001 1.15808 6.88751 1.65808 7.48126C2.15808 8.10626 2.78308 8.48126 3.53308 8.63751C3.22058 8.70001 2.93933 8.73126 2.65808 8.73126C2.47058 8.73126 2.25183 8.73126 2.06433 8.70001C2.25183 9.35626 2.62683 9.88751 3.18933 10.325C3.75183 10.7625 4.37683 10.95 5.12683 10.95C3.90808 11.8875 2.53308 12.3563 1.03308 12.3563C0.720585 12.3563 0.470585 12.3563 0.251835 12.325C1.75183 13.325 3.43933 13.7938 5.28308 13.7938C7.18933 13.7938 8.87683 13.325 10.3768 12.325C11.7206 11.45 12.7831 10.2938 13.5331 8.79376C14.2518 7.41876 14.6268 5.95001 14.6268 4.45001C14.6268 4.26251 14.5956 4.13751 14.5956 4.04376Z" fill="#45ADFA"/>
</svg>
