<svg width="26" height="21" viewBox="0 0 26 21" fill="none" xmlns="http://www.w3.org/2000/svg">
<path d="M25.125 8.53296C25.2812 8.53296 25.4375 8.61108 25.5547 8.72827C25.6719 8.84546 25.75 9.00171 25.75 9.15796V9.78296C25.75 9.97827 25.6719 10.1345 25.5547 10.2517C25.4375 10.3689 25.2812 10.408 25.125 10.408H17.625C17.4297 10.408 17.2734 10.3689 17.1562 10.2517C17.0391 10.1345 17 9.97827 17 9.78296V9.15796C17 9.00171 17.0391 8.84546 17.1562 8.72827C17.2734 8.61108 17.4297 8.53296 17.625 8.53296H25.125ZM13.0156 11.9705C13.9531 11.9705 14.8125 12.2048 15.6328 12.6736C16.4141 13.1423 17.0781 13.8064 17.5469 14.5876C18.0156 15.408 18.25 16.2673 18.25 17.2048V18.2205C18.25 18.7673 18.0547 19.197 17.7031 19.5486C17.3125 19.9392 16.8828 20.0955 16.375 20.0955H2.625C2.07812 20.0955 1.64844 19.9392 1.29688 19.5486C0.90625 19.197 0.75 18.7673 0.75 18.2205V17.2048C0.75 16.2673 0.984375 15.408 1.45312 14.5876C1.92188 13.8064 2.54688 13.1423 3.36719 12.6736C4.14844 12.2048 5.04688 11.9705 5.98438 11.9705C6.29688 11.9705 6.76562 12.0876 7.3125 12.2439C7.66406 12.3611 7.97656 12.4392 8.21094 12.4783C8.60156 12.5564 9.03125 12.5955 9.5 12.5955C9.96875 12.5955 10.3984 12.5564 10.7891 12.4783C11.0234 12.4392 11.2969 12.3611 11.6875 12.2439C12.2344 12.0876 12.6641 11.9705 13.0156 11.9705ZM16.375 18.2205V17.2048C16.375 16.3064 16.0234 15.5251 15.3594 14.8611C14.6953 14.197 13.9141 13.8455 13.0156 13.8455C12.8594 13.8455 12.5859 13.9236 12.2344 14.0017C11.2969 14.3142 10.3594 14.4705 9.5 14.4705C8.64062 14.4705 7.70312 14.3142 6.76562 14.0017C6.375 13.9236 6.10156 13.8455 5.98438 13.8455C5.04688 13.8455 4.26562 14.197 3.60156 14.8611C2.9375 15.5251 2.625 16.3064 2.625 17.2048V18.2205H16.375ZM9.5 11.3455C8.48438 11.3455 7.54688 11.1111 6.6875 10.6033C5.82812 10.0955 5.125 9.39233 4.61719 8.53296C4.10938 7.67358 3.875 6.73608 3.875 5.72046C3.875 4.70483 4.10938 3.76733 4.61719 2.90796C5.125 2.04858 5.82812 1.38452 6.6875 0.876709C7.54688 0.368896 8.48438 0.095459 9.5 0.095459C10.5156 0.095459 11.4531 0.368896 12.3125 0.876709C13.1719 1.38452 13.8359 2.04858 14.3438 2.90796C14.8516 3.76733 15.125 4.70483 15.125 5.72046C15.125 6.73608 14.8516 7.67358 14.3438 8.53296C13.8359 9.39233 13.1719 10.0955 12.3125 10.6033C11.4531 11.1111 10.5156 11.3455 9.5 11.3455ZM9.5 1.97046C8.44531 1.97046 7.54688 2.36108 6.84375 3.06421C6.10156 3.8064 5.75 4.70483 5.75 5.72046C5.75 6.77515 6.10156 7.67358 6.84375 8.37671C7.54688 9.1189 8.44531 9.47046 9.5 9.47046C10.5156 9.47046 11.4141 9.1189 12.1562 8.37671C12.8594 7.67358 13.25 6.77515 13.25 5.72046C13.25 4.70483 12.8594 3.8064 12.1562 3.06421C11.4141 2.36108 10.5156 1.97046 9.5 1.97046Z" fill="#2D86DA"/>
</svg>
