<svg width="21" height="17" viewBox="0 0 21 17" fill="none" xmlns="http://www.w3.org/2000/svg">
<path d="M7.25183 8.29376C6.50183 8.29376 5.84558 8.13751 5.22058 7.76251C4.59558 7.41876 4.12683 6.95001 3.78308 6.32501C3.40808 5.70001 3.25183 5.04376 3.25183 4.29376C3.25183 3.57501 3.40808 2.91876 3.78308 2.29376C4.12683 1.66876 4.59558 1.20001 5.22058 0.825012C5.84558 0.481262 6.50183 0.293762 7.25183 0.293762C7.97058 0.293762 8.62683 0.481262 9.25183 0.825012C9.87683 1.20001 10.3456 1.66876 10.7206 2.29376C11.0643 2.91876 11.2518 3.57501 11.2518 4.29376C11.2518 5.04376 11.0643 5.70001 10.7206 6.32501C10.3456 6.95001 9.87683 7.41876 9.25183 7.76251C8.62683 8.13751 7.97058 8.29376 7.25183 8.29376ZM10.0643 9.29376C10.8143 9.29376 11.5018 9.48126 12.1581 9.85626C12.7831 10.2313 13.3143 10.7625 13.6893 11.3875C14.0643 12.0438 14.2518 12.7313 14.2518 13.4813V14.7938C14.2518 15.2313 14.0956 15.575 13.8143 15.8563C13.5018 16.1688 13.1581 16.2938 12.7518 16.2938H1.75183C1.31433 16.2938 0.970585 16.1688 0.689335 15.8563C0.376835 15.575 0.251835 15.2313 0.251835 14.7938V13.4813C0.251835 12.7313 0.439335 12.0438 0.814335 11.3875C1.18933 10.7625 1.68933 10.2313 2.34558 9.85626C2.97058 9.48126 3.68933 9.29376 4.43933 9.29376H4.97058C5.68933 9.63751 6.43933 9.79376 7.25183 9.79376C8.03308 9.79376 8.78308 9.63751 9.53308 9.29376H10.0643ZM20.1581 5.29376C20.2206 5.35626 20.2518 5.45001 20.2518 5.54376C20.2518 5.66876 20.2206 5.73126 20.1581 5.79376L15.7206 10.2C15.6581 10.2625 15.5643 10.2938 15.4706 10.2938C15.3456 10.2938 15.2518 10.2625 15.1893 10.1688L12.6581 7.60626C12.5643 7.54376 12.5331 7.48126 12.5331 7.35626C12.5331 7.26251 12.5643 7.16876 12.6581 7.07501L13.5331 6.20001C13.5956 6.13751 13.6581 6.10626 13.7831 6.10626C13.8768 6.10626 13.9706 6.16876 14.0643 6.23126L15.4706 7.63751L18.7518 4.38751C18.8143 4.32501 18.9081 4.29376 19.0018 4.29376C19.0956 4.29376 19.1893 4.32501 19.2831 4.38751L20.1581 5.29376Z" fill="#45ADFA"/>
</svg>
